%TF.GenerationSoftware,KiCad,Pcbnew,(6.0.8)*%
%TF.CreationDate,2023-04-10T13:30:07+02:00*%
%TF.ProjectId,LR1120_Mikrobus,4c523131-3230-45f4-9d69-6b726f627573,rev?*%
%TF.SameCoordinates,Original*%
%TF.FileFunction,Legend,Top*%
%TF.FilePolarity,Positive*%
%FSLAX46Y46*%
G04 Gerber Fmt 4.6, Leading zero omitted, Abs format (unit mm)*
G04 Created by KiCad (PCBNEW (6.0.8)) date 2023-04-10 13:30:07*
%MOMM*%
%LPD*%
G01*
G04 APERTURE LIST*
%ADD10C,0.125000*%
%ADD11C,0.050000*%
%ADD12C,0.150000*%
%ADD13C,0.254000*%
%ADD14C,0.200000*%
%ADD15C,0.120000*%
%ADD16C,0.127000*%
%ADD17C,0.250000*%
%ADD18C,0.100000*%
G04 APERTURE END LIST*
D10*
X102500000Y-125500000D02*
X100000000Y-123000000D01*
D11*
X137011904Y-102726190D02*
X137297619Y-102726190D01*
X137154761Y-103226190D02*
X137154761Y-102726190D01*
X137630952Y-102964285D02*
X137464285Y-102964285D01*
X137464285Y-103226190D02*
X137464285Y-102726190D01*
X137702380Y-102726190D01*
X137821428Y-102726190D02*
X138107142Y-102726190D01*
X137964285Y-103226190D02*
X137964285Y-102726190D01*
X138154761Y-103273809D02*
X138535714Y-103273809D01*
X138654761Y-103226190D02*
X138654761Y-102726190D01*
X138773809Y-102726190D01*
X138845238Y-102750000D01*
X138892857Y-102797619D01*
X138916666Y-102845238D01*
X138940476Y-102940476D01*
X138940476Y-103011904D01*
X138916666Y-103107142D01*
X138892857Y-103154761D01*
X138845238Y-103202380D01*
X138773809Y-103226190D01*
X138654761Y-103226190D01*
X126821428Y-103226190D02*
X126821428Y-102726190D01*
X126940476Y-102726190D01*
X127011904Y-102750000D01*
X127059523Y-102797619D01*
X127083333Y-102845238D01*
X127107142Y-102940476D01*
X127107142Y-103011904D01*
X127083333Y-103107142D01*
X127059523Y-103154761D01*
X127011904Y-103202380D01*
X126940476Y-103226190D01*
X126821428Y-103226190D01*
X127321428Y-103226190D02*
X127321428Y-102726190D01*
X127535714Y-103202380D02*
X127607142Y-103226190D01*
X127726190Y-103226190D01*
X127773809Y-103202380D01*
X127797619Y-103178571D01*
X127821428Y-103130952D01*
X127821428Y-103083333D01*
X127797619Y-103035714D01*
X127773809Y-103011904D01*
X127726190Y-102988095D01*
X127630952Y-102964285D01*
X127583333Y-102940476D01*
X127559523Y-102916666D01*
X127535714Y-102869047D01*
X127535714Y-102821428D01*
X127559523Y-102773809D01*
X127583333Y-102750000D01*
X127630952Y-102726190D01*
X127750000Y-102726190D01*
X127821428Y-102750000D01*
X128035714Y-103226190D02*
X128035714Y-102726190D01*
X128226190Y-102726190D01*
X128273809Y-102750000D01*
X128297619Y-102773809D01*
X128321428Y-102821428D01*
X128321428Y-102892857D01*
X128297619Y-102940476D01*
X128273809Y-102964285D01*
X128226190Y-102988095D01*
X128035714Y-102988095D01*
X128416666Y-103273809D02*
X128797619Y-103273809D01*
X129202380Y-103226190D02*
X129035714Y-102988095D01*
X128916666Y-103226190D02*
X128916666Y-102726190D01*
X129107142Y-102726190D01*
X129154761Y-102750000D01*
X129178571Y-102773809D01*
X129202380Y-102821428D01*
X129202380Y-102892857D01*
X129178571Y-102940476D01*
X129154761Y-102964285D01*
X129107142Y-102988095D01*
X128916666Y-102988095D01*
X140083333Y-122464285D02*
X140154761Y-122488095D01*
X140178571Y-122511904D01*
X140202380Y-122559523D01*
X140202380Y-122630952D01*
X140178571Y-122678571D01*
X140154761Y-122702380D01*
X140107142Y-122726190D01*
X139916666Y-122726190D01*
X139916666Y-122226190D01*
X140083333Y-122226190D01*
X140130952Y-122250000D01*
X140154761Y-122273809D01*
X140178571Y-122321428D01*
X140178571Y-122369047D01*
X140154761Y-122416666D01*
X140130952Y-122440476D01*
X140083333Y-122464285D01*
X139916666Y-122464285D01*
X140392857Y-122702380D02*
X140464285Y-122726190D01*
X140583333Y-122726190D01*
X140630952Y-122702380D01*
X140654761Y-122678571D01*
X140678571Y-122630952D01*
X140678571Y-122583333D01*
X140654761Y-122535714D01*
X140630952Y-122511904D01*
X140583333Y-122488095D01*
X140488095Y-122464285D01*
X140440476Y-122440476D01*
X140416666Y-122416666D01*
X140392857Y-122369047D01*
X140392857Y-122321428D01*
X140416666Y-122273809D01*
X140440476Y-122250000D01*
X140488095Y-122226190D01*
X140607142Y-122226190D01*
X140678571Y-122250000D01*
X140988095Y-122488095D02*
X140988095Y-122726190D01*
X140821428Y-122226190D02*
X140988095Y-122488095D01*
X141154761Y-122226190D01*
X125166666Y-122726190D02*
X124928571Y-122726190D01*
X124928571Y-122226190D01*
X125619047Y-122726190D02*
X125452380Y-122488095D01*
X125333333Y-122726190D02*
X125333333Y-122226190D01*
X125523809Y-122226190D01*
X125571428Y-122250000D01*
X125595238Y-122273809D01*
X125619047Y-122321428D01*
X125619047Y-122392857D01*
X125595238Y-122440476D01*
X125571428Y-122464285D01*
X125523809Y-122488095D01*
X125333333Y-122488095D01*
X125785714Y-122226190D02*
X126119047Y-122726190D01*
X126119047Y-122226190D02*
X125785714Y-122726190D01*
X124650000Y-103226190D02*
X124650000Y-102726190D01*
X124769047Y-102726190D01*
X124840476Y-102750000D01*
X124888095Y-102797619D01*
X124911904Y-102845238D01*
X124935714Y-102940476D01*
X124935714Y-103011904D01*
X124911904Y-103107142D01*
X124888095Y-103154761D01*
X124840476Y-103202380D01*
X124769047Y-103226190D01*
X124650000Y-103226190D01*
X125150000Y-103226190D02*
X125150000Y-102726190D01*
X125483333Y-102726190D02*
X125578571Y-102726190D01*
X125626190Y-102750000D01*
X125673809Y-102797619D01*
X125697619Y-102892857D01*
X125697619Y-103059523D01*
X125673809Y-103154761D01*
X125626190Y-103202380D01*
X125578571Y-103226190D01*
X125483333Y-103226190D01*
X125435714Y-103202380D01*
X125388095Y-103154761D01*
X125364285Y-103059523D01*
X125364285Y-102892857D01*
X125388095Y-102797619D01*
X125435714Y-102750000D01*
X125483333Y-102726190D01*
X125935714Y-103226190D02*
X126030952Y-103226190D01*
X126078571Y-103202380D01*
X126102380Y-103178571D01*
X126150000Y-103107142D01*
X126173809Y-103011904D01*
X126173809Y-102821428D01*
X126150000Y-102773809D01*
X126126190Y-102750000D01*
X126078571Y-102726190D01*
X125983333Y-102726190D01*
X125935714Y-102750000D01*
X125911904Y-102773809D01*
X125888095Y-102821428D01*
X125888095Y-102940476D01*
X125911904Y-102988095D01*
X125935714Y-103011904D01*
X125983333Y-103035714D01*
X126078571Y-103035714D01*
X126126190Y-103011904D01*
X126150000Y-102988095D01*
X126173809Y-102940476D01*
D10*
X101393690Y-109114285D02*
X100893690Y-109114285D01*
X100893690Y-108995238D01*
X100917500Y-108923809D01*
X100965119Y-108876190D01*
X101012738Y-108852380D01*
X101107976Y-108828571D01*
X101179404Y-108828571D01*
X101274642Y-108852380D01*
X101322261Y-108876190D01*
X101369880Y-108923809D01*
X101393690Y-108995238D01*
X101393690Y-109114285D01*
X101393690Y-108400000D02*
X101131785Y-108400000D01*
X101084166Y-108423809D01*
X101060357Y-108471428D01*
X101060357Y-108566666D01*
X101084166Y-108614285D01*
X101369880Y-108400000D02*
X101393690Y-108447619D01*
X101393690Y-108566666D01*
X101369880Y-108614285D01*
X101322261Y-108638095D01*
X101274642Y-108638095D01*
X101227023Y-108614285D01*
X101203214Y-108566666D01*
X101203214Y-108447619D01*
X101179404Y-108400000D01*
X101060357Y-108161904D02*
X101393690Y-108161904D01*
X101107976Y-108161904D02*
X101084166Y-108138095D01*
X101060357Y-108090476D01*
X101060357Y-108019047D01*
X101084166Y-107971428D01*
X101131785Y-107947619D01*
X101393690Y-107947619D01*
X101060357Y-107780952D02*
X101060357Y-107590476D01*
X100893690Y-107709523D02*
X101322261Y-107709523D01*
X101369880Y-107685714D01*
X101393690Y-107638095D01*
X101393690Y-107590476D01*
X101369880Y-107233333D02*
X101393690Y-107280952D01*
X101393690Y-107376190D01*
X101369880Y-107423809D01*
X101322261Y-107447619D01*
X101131785Y-107447619D01*
X101084166Y-107423809D01*
X101060357Y-107376190D01*
X101060357Y-107280952D01*
X101084166Y-107233333D01*
X101131785Y-107209523D01*
X101179404Y-107209523D01*
X101227023Y-107447619D01*
X101393690Y-106328571D02*
X101155595Y-106495238D01*
X101393690Y-106614285D02*
X100893690Y-106614285D01*
X100893690Y-106423809D01*
X100917500Y-106376190D01*
X100941309Y-106352380D01*
X100988928Y-106328571D01*
X101060357Y-106328571D01*
X101107976Y-106352380D01*
X101131785Y-106376190D01*
X101155595Y-106423809D01*
X101155595Y-106614285D01*
X101346071Y-106114285D02*
X101369880Y-106090476D01*
X101393690Y-106114285D01*
X101369880Y-106138095D01*
X101346071Y-106114285D01*
X101393690Y-106114285D01*
X101131785Y-105328571D02*
X101131785Y-105495238D01*
X101393690Y-105495238D02*
X100893690Y-105495238D01*
X100893690Y-105257142D01*
X101393690Y-105066666D02*
X101060357Y-105066666D01*
X101155595Y-105066666D02*
X101107976Y-105042857D01*
X101084166Y-105019047D01*
X101060357Y-104971428D01*
X101060357Y-104923809D01*
X101369880Y-104566666D02*
X101393690Y-104614285D01*
X101393690Y-104709523D01*
X101369880Y-104757142D01*
X101322261Y-104780952D01*
X101131785Y-104780952D01*
X101084166Y-104757142D01*
X101060357Y-104709523D01*
X101060357Y-104614285D01*
X101084166Y-104566666D01*
X101131785Y-104542857D01*
X101179404Y-104542857D01*
X101227023Y-104780952D01*
X101393690Y-104328571D02*
X101060357Y-104328571D01*
X100893690Y-104328571D02*
X100917500Y-104352380D01*
X100941309Y-104328571D01*
X100917500Y-104304761D01*
X100893690Y-104328571D01*
X100941309Y-104328571D01*
X101060357Y-104161904D02*
X101060357Y-103971428D01*
X100893690Y-104090476D02*
X101322261Y-104090476D01*
X101369880Y-104066666D01*
X101393690Y-104019047D01*
X101393690Y-103971428D01*
X101393690Y-103590476D02*
X101131785Y-103590476D01*
X101084166Y-103614285D01*
X101060357Y-103661904D01*
X101060357Y-103757142D01*
X101084166Y-103804761D01*
X101369880Y-103590476D02*
X101393690Y-103638095D01*
X101393690Y-103757142D01*
X101369880Y-103804761D01*
X101322261Y-103828571D01*
X101274642Y-103828571D01*
X101227023Y-103804761D01*
X101203214Y-103757142D01*
X101203214Y-103638095D01*
X101179404Y-103590476D01*
X101369880Y-103376190D02*
X101393690Y-103328571D01*
X101393690Y-103233333D01*
X101369880Y-103185714D01*
X101322261Y-103161904D01*
X101298452Y-103161904D01*
X101250833Y-103185714D01*
X101227023Y-103233333D01*
X101227023Y-103304761D01*
X101203214Y-103352380D01*
X101155595Y-103376190D01*
X101131785Y-103376190D01*
X101084166Y-103352380D01*
X101060357Y-103304761D01*
X101060357Y-103233333D01*
X101084166Y-103185714D01*
X102198690Y-109983333D02*
X101698690Y-109983333D01*
X101698690Y-109792857D01*
X101722500Y-109745238D01*
X101746309Y-109721428D01*
X101793928Y-109697619D01*
X101865357Y-109697619D01*
X101912976Y-109721428D01*
X101936785Y-109745238D01*
X101960595Y-109792857D01*
X101960595Y-109983333D01*
X102151071Y-109197619D02*
X102174880Y-109221428D01*
X102198690Y-109292857D01*
X102198690Y-109340476D01*
X102174880Y-109411904D01*
X102127261Y-109459523D01*
X102079642Y-109483333D01*
X101984404Y-109507142D01*
X101912976Y-109507142D01*
X101817738Y-109483333D01*
X101770119Y-109459523D01*
X101722500Y-109411904D01*
X101698690Y-109340476D01*
X101698690Y-109292857D01*
X101722500Y-109221428D01*
X101746309Y-109197619D01*
X101936785Y-108816666D02*
X101960595Y-108745238D01*
X101984404Y-108721428D01*
X102032023Y-108697619D01*
X102103452Y-108697619D01*
X102151071Y-108721428D01*
X102174880Y-108745238D01*
X102198690Y-108792857D01*
X102198690Y-108983333D01*
X101698690Y-108983333D01*
X101698690Y-108816666D01*
X101722500Y-108769047D01*
X101746309Y-108745238D01*
X101793928Y-108721428D01*
X101841547Y-108721428D01*
X101889166Y-108745238D01*
X101912976Y-108769047D01*
X101936785Y-108816666D01*
X101936785Y-108983333D01*
X102198690Y-107864285D02*
X102198690Y-108102380D01*
X101698690Y-108102380D01*
X102198690Y-107483333D02*
X101936785Y-107483333D01*
X101889166Y-107507142D01*
X101865357Y-107554761D01*
X101865357Y-107650000D01*
X101889166Y-107697619D01*
X102174880Y-107483333D02*
X102198690Y-107530952D01*
X102198690Y-107650000D01*
X102174880Y-107697619D01*
X102127261Y-107721428D01*
X102079642Y-107721428D01*
X102032023Y-107697619D01*
X102008214Y-107650000D01*
X102008214Y-107530952D01*
X101984404Y-107483333D01*
X101865357Y-107292857D02*
X102198690Y-107173809D01*
X101865357Y-107054761D02*
X102198690Y-107173809D01*
X102317738Y-107221428D01*
X102341547Y-107245238D01*
X102365357Y-107292857D01*
X102198690Y-106792857D02*
X102174880Y-106840476D01*
X102151071Y-106864285D01*
X102103452Y-106888095D01*
X101960595Y-106888095D01*
X101912976Y-106864285D01*
X101889166Y-106840476D01*
X101865357Y-106792857D01*
X101865357Y-106721428D01*
X101889166Y-106673809D01*
X101912976Y-106650000D01*
X101960595Y-106626190D01*
X102103452Y-106626190D01*
X102151071Y-106650000D01*
X102174880Y-106673809D01*
X102198690Y-106721428D01*
X102198690Y-106792857D01*
X101865357Y-106197619D02*
X102198690Y-106197619D01*
X101865357Y-106411904D02*
X102127261Y-106411904D01*
X102174880Y-106388095D01*
X102198690Y-106340476D01*
X102198690Y-106269047D01*
X102174880Y-106221428D01*
X102151071Y-106197619D01*
X101865357Y-106030952D02*
X101865357Y-105840476D01*
X101698690Y-105959523D02*
X102127261Y-105959523D01*
X102174880Y-105935714D01*
X102198690Y-105888095D01*
X102198690Y-105840476D01*
X102198690Y-105292857D02*
X101698690Y-105292857D01*
X101698690Y-105173809D01*
X101722500Y-105102380D01*
X101770119Y-105054761D01*
X101817738Y-105030952D01*
X101912976Y-105007142D01*
X101984404Y-105007142D01*
X102079642Y-105030952D01*
X102127261Y-105054761D01*
X102174880Y-105102380D01*
X102198690Y-105173809D01*
X102198690Y-105292857D01*
X102174880Y-104602380D02*
X102198690Y-104650000D01*
X102198690Y-104745238D01*
X102174880Y-104792857D01*
X102127261Y-104816666D01*
X101936785Y-104816666D01*
X101889166Y-104792857D01*
X101865357Y-104745238D01*
X101865357Y-104650000D01*
X101889166Y-104602380D01*
X101936785Y-104578571D01*
X101984404Y-104578571D01*
X102032023Y-104816666D01*
X102174880Y-104388095D02*
X102198690Y-104340476D01*
X102198690Y-104245238D01*
X102174880Y-104197619D01*
X102127261Y-104173809D01*
X102103452Y-104173809D01*
X102055833Y-104197619D01*
X102032023Y-104245238D01*
X102032023Y-104316666D01*
X102008214Y-104364285D01*
X101960595Y-104388095D01*
X101936785Y-104388095D01*
X101889166Y-104364285D01*
X101865357Y-104316666D01*
X101865357Y-104245238D01*
X101889166Y-104197619D01*
X102198690Y-103959523D02*
X101865357Y-103959523D01*
X101698690Y-103959523D02*
X101722500Y-103983333D01*
X101746309Y-103959523D01*
X101722500Y-103935714D01*
X101698690Y-103959523D01*
X101746309Y-103959523D01*
X101865357Y-103507142D02*
X102270119Y-103507142D01*
X102317738Y-103530952D01*
X102341547Y-103554761D01*
X102365357Y-103602380D01*
X102365357Y-103673809D01*
X102341547Y-103721428D01*
X102174880Y-103507142D02*
X102198690Y-103554761D01*
X102198690Y-103650000D01*
X102174880Y-103697619D01*
X102151071Y-103721428D01*
X102103452Y-103745238D01*
X101960595Y-103745238D01*
X101912976Y-103721428D01*
X101889166Y-103697619D01*
X101865357Y-103650000D01*
X101865357Y-103554761D01*
X101889166Y-103507142D01*
X101865357Y-103269047D02*
X102198690Y-103269047D01*
X101912976Y-103269047D02*
X101889166Y-103245238D01*
X101865357Y-103197619D01*
X101865357Y-103126190D01*
X101889166Y-103078571D01*
X101936785Y-103054761D01*
X102198690Y-103054761D01*
X102174880Y-102626190D02*
X102198690Y-102673809D01*
X102198690Y-102769047D01*
X102174880Y-102816666D01*
X102127261Y-102840476D01*
X101936785Y-102840476D01*
X101889166Y-102816666D01*
X101865357Y-102769047D01*
X101865357Y-102673809D01*
X101889166Y-102626190D01*
X101936785Y-102602380D01*
X101984404Y-102602380D01*
X102032023Y-102840476D01*
X102198690Y-102388095D02*
X101865357Y-102388095D01*
X101960595Y-102388095D02*
X101912976Y-102364285D01*
X101889166Y-102340476D01*
X101865357Y-102292857D01*
X101865357Y-102245238D01*
D11*
X137380952Y-122583333D02*
X137619047Y-122583333D01*
X137333333Y-122726190D02*
X137500000Y-122226190D01*
X137666666Y-122726190D01*
X138119047Y-122678571D02*
X138095238Y-122702380D01*
X138023809Y-122726190D01*
X137976190Y-122726190D01*
X137904761Y-122702380D01*
X137857142Y-122654761D01*
X137833333Y-122607142D01*
X137809523Y-122511904D01*
X137809523Y-122440476D01*
X137833333Y-122345238D01*
X137857142Y-122297619D01*
X137904761Y-122250000D01*
X137976190Y-122226190D01*
X138023809Y-122226190D01*
X138095238Y-122250000D01*
X138119047Y-122273809D01*
X138619047Y-122678571D02*
X138595238Y-122702380D01*
X138523809Y-122726190D01*
X138476190Y-122726190D01*
X138404761Y-122702380D01*
X138357142Y-122654761D01*
X138333333Y-122607142D01*
X138309523Y-122511904D01*
X138309523Y-122440476D01*
X138333333Y-122345238D01*
X138357142Y-122297619D01*
X138404761Y-122250000D01*
X138476190Y-122226190D01*
X138523809Y-122226190D01*
X138595238Y-122250000D01*
X138619047Y-122273809D01*
X129880952Y-103202380D02*
X129952380Y-103226190D01*
X130071428Y-103226190D01*
X130119047Y-103202380D01*
X130142857Y-103178571D01*
X130166666Y-103130952D01*
X130166666Y-103083333D01*
X130142857Y-103035714D01*
X130119047Y-103011904D01*
X130071428Y-102988095D01*
X129976190Y-102964285D01*
X129928571Y-102940476D01*
X129904761Y-102916666D01*
X129880952Y-102869047D01*
X129880952Y-102821428D01*
X129904761Y-102773809D01*
X129928571Y-102750000D01*
X129976190Y-102726190D01*
X130095238Y-102726190D01*
X130166666Y-102750000D01*
X130380952Y-103226190D02*
X130380952Y-102726190D01*
X130666666Y-103226190D01*
X130666666Y-102726190D01*
X131071428Y-102964285D02*
X130904761Y-102964285D01*
X130904761Y-103226190D02*
X130904761Y-102726190D01*
X131142857Y-102726190D01*
X139523809Y-102726190D02*
X139809523Y-102726190D01*
X139666666Y-103226190D02*
X139666666Y-102726190D01*
X140142857Y-102964285D02*
X139976190Y-102964285D01*
X139976190Y-103226190D02*
X139976190Y-102726190D01*
X140214285Y-102726190D01*
X140333333Y-102726190D02*
X140619047Y-102726190D01*
X140476190Y-103226190D02*
X140476190Y-102726190D01*
X140666666Y-103273809D02*
X141047619Y-103273809D01*
X141452380Y-103178571D02*
X141428571Y-103202380D01*
X141357142Y-103226190D01*
X141309523Y-103226190D01*
X141238095Y-103202380D01*
X141190476Y-103154761D01*
X141166666Y-103107142D01*
X141142857Y-103011904D01*
X141142857Y-102940476D01*
X141166666Y-102845238D01*
X141190476Y-102797619D01*
X141238095Y-102750000D01*
X141309523Y-102726190D01*
X141357142Y-102726190D01*
X141428571Y-102750000D01*
X141452380Y-102773809D01*
X141642857Y-103202380D02*
X141714285Y-103226190D01*
X141833333Y-103226190D01*
X141880952Y-103202380D01*
X141904761Y-103178571D01*
X141928571Y-103130952D01*
X141928571Y-103083333D01*
X141904761Y-103035714D01*
X141880952Y-103011904D01*
X141833333Y-102988095D01*
X141738095Y-102964285D01*
X141690476Y-102940476D01*
X141666666Y-102916666D01*
X141642857Y-102869047D01*
X141642857Y-102821428D01*
X141666666Y-102773809D01*
X141690476Y-102750000D01*
X141738095Y-102726190D01*
X141857142Y-102726190D01*
X141928571Y-102750000D01*
X132916666Y-122726190D02*
X132678571Y-122726190D01*
X132678571Y-122226190D01*
X133035714Y-122226190D02*
X133369047Y-122726190D01*
X133369047Y-122226190D02*
X133035714Y-122726190D01*
X127476190Y-122726190D02*
X127238095Y-122726190D01*
X127238095Y-122226190D01*
X127571428Y-122226190D02*
X127857142Y-122226190D01*
X127714285Y-122726190D02*
X127714285Y-122226190D01*
X127976190Y-122226190D02*
X128309523Y-122726190D01*
X128309523Y-122226190D02*
X127976190Y-122726190D01*
X132392857Y-102964285D02*
X132226190Y-102964285D01*
X132226190Y-103226190D02*
X132226190Y-102726190D01*
X132464285Y-102726190D01*
X132535714Y-103273809D02*
X132916666Y-103273809D01*
X133321428Y-103178571D02*
X133297619Y-103202380D01*
X133226190Y-103226190D01*
X133178571Y-103226190D01*
X133107142Y-103202380D01*
X133059523Y-103154761D01*
X133035714Y-103107142D01*
X133011904Y-103011904D01*
X133011904Y-102940476D01*
X133035714Y-102845238D01*
X133059523Y-102797619D01*
X133107142Y-102750000D01*
X133178571Y-102726190D01*
X133226190Y-102726190D01*
X133297619Y-102750000D01*
X133321428Y-102773809D01*
X133511904Y-103202380D02*
X133583333Y-103226190D01*
X133702380Y-103226190D01*
X133750000Y-103202380D01*
X133773809Y-103178571D01*
X133797619Y-103130952D01*
X133797619Y-103083333D01*
X133773809Y-103035714D01*
X133750000Y-103011904D01*
X133702380Y-102988095D01*
X133607142Y-102964285D01*
X133559523Y-102940476D01*
X133535714Y-102916666D01*
X133511904Y-102869047D01*
X133511904Y-102821428D01*
X133535714Y-102773809D01*
X133559523Y-102750000D01*
X133607142Y-102726190D01*
X133726190Y-102726190D01*
X133797619Y-102750000D01*
X134583333Y-122226190D02*
X134892857Y-122226190D01*
X134726190Y-122416666D01*
X134797619Y-122416666D01*
X134845238Y-122440476D01*
X134869047Y-122464285D01*
X134892857Y-122511904D01*
X134892857Y-122630952D01*
X134869047Y-122678571D01*
X134845238Y-122702380D01*
X134797619Y-122726190D01*
X134654761Y-122726190D01*
X134607142Y-122702380D01*
X134583333Y-122678571D01*
X135083333Y-122273809D02*
X135107142Y-122250000D01*
X135154761Y-122226190D01*
X135273809Y-122226190D01*
X135321428Y-122250000D01*
X135345238Y-122273809D01*
X135369047Y-122321428D01*
X135369047Y-122369047D01*
X135345238Y-122440476D01*
X135059523Y-122726190D01*
X135369047Y-122726190D01*
X135583333Y-122726190D02*
X135583333Y-122226190D01*
X135869047Y-122726190D02*
X135654761Y-122440476D01*
X135869047Y-122226190D02*
X135583333Y-122511904D01*
X136178571Y-122226190D02*
X136273809Y-122226190D01*
X136321428Y-122250000D01*
X136369047Y-122297619D01*
X136392857Y-122392857D01*
X136392857Y-122559523D01*
X136369047Y-122654761D01*
X136321428Y-122702380D01*
X136273809Y-122726190D01*
X136178571Y-122726190D01*
X136130952Y-122702380D01*
X136083333Y-122654761D01*
X136059523Y-122559523D01*
X136059523Y-122392857D01*
X136083333Y-122297619D01*
X136130952Y-122250000D01*
X136178571Y-122226190D01*
X134535714Y-102726190D02*
X134821428Y-102726190D01*
X134678571Y-103226190D02*
X134678571Y-102726190D01*
X134869047Y-103273809D02*
X135250000Y-103273809D01*
X135369047Y-103226190D02*
X135369047Y-102726190D01*
X135892857Y-103226190D02*
X135726190Y-102988095D01*
X135607142Y-103226190D02*
X135607142Y-102726190D01*
X135797619Y-102726190D01*
X135845238Y-102750000D01*
X135869047Y-102773809D01*
X135892857Y-102821428D01*
X135892857Y-102892857D01*
X135869047Y-102940476D01*
X135845238Y-102964285D01*
X135797619Y-102988095D01*
X135607142Y-102988095D01*
X136440476Y-103273809D02*
X136392857Y-103250000D01*
X136345238Y-103202380D01*
X136273809Y-103130952D01*
X136226190Y-103107142D01*
X136178571Y-103107142D01*
X136202380Y-103226190D02*
X136154761Y-103202380D01*
X136107142Y-103154761D01*
X136083333Y-103059523D01*
X136083333Y-102892857D01*
X136107142Y-102797619D01*
X136154761Y-102750000D01*
X136202380Y-102726190D01*
X136297619Y-102726190D01*
X136345238Y-102750000D01*
X136392857Y-102797619D01*
X136416666Y-102892857D01*
X136416666Y-103059523D01*
X136392857Y-103154761D01*
X136345238Y-103202380D01*
X136297619Y-103226190D01*
X136202380Y-103226190D01*
X129857142Y-122678571D02*
X129833333Y-122702380D01*
X129761904Y-122726190D01*
X129714285Y-122726190D01*
X129642857Y-122702380D01*
X129595238Y-122654761D01*
X129571428Y-122607142D01*
X129547619Y-122511904D01*
X129547619Y-122440476D01*
X129571428Y-122345238D01*
X129595238Y-122297619D01*
X129642857Y-122250000D01*
X129714285Y-122226190D01*
X129761904Y-122226190D01*
X129833333Y-122250000D01*
X129857142Y-122273809D01*
X130071428Y-122726190D02*
X130071428Y-122226190D01*
X130238095Y-122583333D01*
X130404761Y-122226190D01*
X130404761Y-122726190D01*
X130928571Y-122678571D02*
X130904761Y-122702380D01*
X130833333Y-122726190D01*
X130785714Y-122726190D01*
X130714285Y-122702380D01*
X130666666Y-122654761D01*
X130642857Y-122607142D01*
X130619047Y-122511904D01*
X130619047Y-122440476D01*
X130642857Y-122345238D01*
X130666666Y-122297619D01*
X130714285Y-122250000D01*
X130785714Y-122226190D01*
X130833333Y-122226190D01*
X130904761Y-122250000D01*
X130928571Y-122273809D01*
X131142857Y-122226190D02*
X131142857Y-122630952D01*
X131166666Y-122678571D01*
X131190476Y-122702380D01*
X131238095Y-122726190D01*
X131333333Y-122726190D01*
X131380952Y-122702380D01*
X131404761Y-122678571D01*
X131428571Y-122630952D01*
X131428571Y-122226190D01*
%TO.C,CON1*%
X101812142Y-113887857D02*
X101859761Y-113930714D01*
X101907380Y-114059285D01*
X101907380Y-114145000D01*
X101859761Y-114273571D01*
X101764523Y-114359285D01*
X101669285Y-114402142D01*
X101478809Y-114445000D01*
X101335952Y-114445000D01*
X101145476Y-114402142D01*
X101050238Y-114359285D01*
X100955000Y-114273571D01*
X100907380Y-114145000D01*
X100907380Y-114059285D01*
X100955000Y-113930714D01*
X101002619Y-113887857D01*
X100907380Y-113330714D02*
X100907380Y-113159285D01*
X100955000Y-113073571D01*
X101050238Y-112987857D01*
X101240714Y-112945000D01*
X101574047Y-112945000D01*
X101764523Y-112987857D01*
X101859761Y-113073571D01*
X101907380Y-113159285D01*
X101907380Y-113330714D01*
X101859761Y-113416428D01*
X101764523Y-113502142D01*
X101574047Y-113545000D01*
X101240714Y-113545000D01*
X101050238Y-113502142D01*
X100955000Y-113416428D01*
X100907380Y-113330714D01*
X101907380Y-112559285D02*
X100907380Y-112559285D01*
X101907380Y-112045000D01*
X100907380Y-112045000D01*
X101907380Y-111145000D02*
X101907380Y-111659285D01*
X101907380Y-111402142D02*
X100907380Y-111402142D01*
X101050238Y-111487857D01*
X101145476Y-111573571D01*
X101193095Y-111659285D01*
X121069047Y-102668333D02*
X121307142Y-102668333D01*
X121021428Y-102811190D02*
X121188095Y-102311190D01*
X121354761Y-102811190D01*
X121521428Y-102811190D02*
X121521428Y-102311190D01*
X121807142Y-102811190D01*
X121807142Y-102311190D01*
X118787551Y-102811190D02*
X118620884Y-102573095D01*
X118501837Y-102811190D02*
X118501837Y-102311190D01*
X118692313Y-102311190D01*
X118739932Y-102335000D01*
X118763741Y-102358809D01*
X118787551Y-102406428D01*
X118787551Y-102477857D01*
X118763741Y-102525476D01*
X118739932Y-102549285D01*
X118692313Y-102573095D01*
X118501837Y-102573095D01*
X118978027Y-102787380D02*
X119049456Y-102811190D01*
X119168503Y-102811190D01*
X119216122Y-102787380D01*
X119239932Y-102763571D01*
X119263741Y-102715952D01*
X119263741Y-102668333D01*
X119239932Y-102620714D01*
X119216122Y-102596904D01*
X119168503Y-102573095D01*
X119073265Y-102549285D01*
X119025646Y-102525476D01*
X119001837Y-102501666D01*
X118978027Y-102454047D01*
X118978027Y-102406428D01*
X119001837Y-102358809D01*
X119025646Y-102335000D01*
X119073265Y-102311190D01*
X119192313Y-102311190D01*
X119263741Y-102335000D01*
X119406599Y-102311190D02*
X119692313Y-102311190D01*
X119549456Y-102811190D02*
X119549456Y-102311190D01*
X116501666Y-102763571D02*
X116477857Y-102787380D01*
X116406428Y-102811190D01*
X116358809Y-102811190D01*
X116287380Y-102787380D01*
X116239761Y-102739761D01*
X116215952Y-102692142D01*
X116192142Y-102596904D01*
X116192142Y-102525476D01*
X116215952Y-102430238D01*
X116239761Y-102382619D01*
X116287380Y-102335000D01*
X116358809Y-102311190D01*
X116406428Y-102311190D01*
X116477857Y-102335000D01*
X116501666Y-102358809D01*
X116692142Y-102787380D02*
X116763571Y-102811190D01*
X116882619Y-102811190D01*
X116930238Y-102787380D01*
X116954047Y-102763571D01*
X116977857Y-102715952D01*
X116977857Y-102668333D01*
X116954047Y-102620714D01*
X116930238Y-102596904D01*
X116882619Y-102573095D01*
X116787380Y-102549285D01*
X116739761Y-102525476D01*
X116715952Y-102501666D01*
X116692142Y-102454047D01*
X116692142Y-102406428D01*
X116715952Y-102358809D01*
X116739761Y-102335000D01*
X116787380Y-102311190D01*
X116906428Y-102311190D01*
X116977857Y-102335000D01*
X113442142Y-102787380D02*
X113513571Y-102811190D01*
X113632619Y-102811190D01*
X113680238Y-102787380D01*
X113704047Y-102763571D01*
X113727857Y-102715952D01*
X113727857Y-102668333D01*
X113704047Y-102620714D01*
X113680238Y-102596904D01*
X113632619Y-102573095D01*
X113537380Y-102549285D01*
X113489761Y-102525476D01*
X113465952Y-102501666D01*
X113442142Y-102454047D01*
X113442142Y-102406428D01*
X113465952Y-102358809D01*
X113489761Y-102335000D01*
X113537380Y-102311190D01*
X113656428Y-102311190D01*
X113727857Y-102335000D01*
X114227857Y-102763571D02*
X114204047Y-102787380D01*
X114132619Y-102811190D01*
X114085000Y-102811190D01*
X114013571Y-102787380D01*
X113965952Y-102739761D01*
X113942142Y-102692142D01*
X113918333Y-102596904D01*
X113918333Y-102525476D01*
X113942142Y-102430238D01*
X113965952Y-102382619D01*
X114013571Y-102335000D01*
X114085000Y-102311190D01*
X114132619Y-102311190D01*
X114204047Y-102335000D01*
X114227857Y-102358809D01*
X114442142Y-102811190D02*
X114442142Y-102311190D01*
X114727857Y-102811190D02*
X114513571Y-102525476D01*
X114727857Y-102311190D02*
X114442142Y-102596904D01*
X110824017Y-102787380D02*
X110895445Y-102811190D01*
X111014493Y-102811190D01*
X111062112Y-102787380D01*
X111085921Y-102763571D01*
X111109731Y-102715952D01*
X111109731Y-102668333D01*
X111085921Y-102620714D01*
X111062112Y-102596904D01*
X111014493Y-102573095D01*
X110919255Y-102549285D01*
X110871636Y-102525476D01*
X110847826Y-102501666D01*
X110824017Y-102454047D01*
X110824017Y-102406428D01*
X110847826Y-102358809D01*
X110871636Y-102335000D01*
X110919255Y-102311190D01*
X111038302Y-102311190D01*
X111109731Y-102335000D01*
X111324017Y-102811190D02*
X111324017Y-102311190D01*
X111443064Y-102311190D01*
X111514493Y-102335000D01*
X111562112Y-102382619D01*
X111585921Y-102430238D01*
X111609731Y-102525476D01*
X111609731Y-102596904D01*
X111585921Y-102692142D01*
X111562112Y-102739761D01*
X111514493Y-102787380D01*
X111443064Y-102811190D01*
X111324017Y-102811190D01*
X111919255Y-102311190D02*
X112014493Y-102311190D01*
X112062112Y-102335000D01*
X112109731Y-102382619D01*
X112133540Y-102477857D01*
X112133540Y-102644523D01*
X112109731Y-102739761D01*
X112062112Y-102787380D01*
X112014493Y-102811190D01*
X111919255Y-102811190D01*
X111871636Y-102787380D01*
X111824017Y-102739761D01*
X111800207Y-102644523D01*
X111800207Y-102477857D01*
X111824017Y-102382619D01*
X111871636Y-102335000D01*
X111919255Y-102311190D01*
X108375854Y-102787380D02*
X108447282Y-102811190D01*
X108566330Y-102811190D01*
X108613949Y-102787380D01*
X108637759Y-102763571D01*
X108661568Y-102715952D01*
X108661568Y-102668333D01*
X108637759Y-102620714D01*
X108613949Y-102596904D01*
X108566330Y-102573095D01*
X108471092Y-102549285D01*
X108423473Y-102525476D01*
X108399663Y-102501666D01*
X108375854Y-102454047D01*
X108375854Y-102406428D01*
X108399663Y-102358809D01*
X108423473Y-102335000D01*
X108471092Y-102311190D01*
X108590139Y-102311190D01*
X108661568Y-102335000D01*
X108875854Y-102811190D02*
X108875854Y-102311190D01*
X108994901Y-102311190D01*
X109066330Y-102335000D01*
X109113949Y-102382619D01*
X109137759Y-102430238D01*
X109161568Y-102525476D01*
X109161568Y-102596904D01*
X109137759Y-102692142D01*
X109113949Y-102739761D01*
X109066330Y-102787380D01*
X108994901Y-102811190D01*
X108875854Y-102811190D01*
X109375854Y-102811190D02*
X109375854Y-102311190D01*
X105737215Y-102311190D02*
X106046739Y-102311190D01*
X105880072Y-102501666D01*
X105951501Y-102501666D01*
X105999120Y-102525476D01*
X106022929Y-102549285D01*
X106046739Y-102596904D01*
X106046739Y-102715952D01*
X106022929Y-102763571D01*
X105999120Y-102787380D01*
X105951501Y-102811190D01*
X105808643Y-102811190D01*
X105761024Y-102787380D01*
X105737215Y-102763571D01*
X106189596Y-102311190D02*
X106356263Y-102811190D01*
X106522929Y-102311190D01*
X106641977Y-102311190D02*
X106951501Y-102311190D01*
X106784834Y-102501666D01*
X106856263Y-102501666D01*
X106903882Y-102525476D01*
X106927691Y-102549285D01*
X106951501Y-102596904D01*
X106951501Y-102715952D01*
X106927691Y-102763571D01*
X106903882Y-102787380D01*
X106856263Y-102811190D01*
X106713405Y-102811190D01*
X106665786Y-102787380D01*
X106641977Y-102763571D01*
X103404047Y-102335000D02*
X103356428Y-102311190D01*
X103285000Y-102311190D01*
X103213571Y-102335000D01*
X103165952Y-102382619D01*
X103142142Y-102430238D01*
X103118333Y-102525476D01*
X103118333Y-102596904D01*
X103142142Y-102692142D01*
X103165952Y-102739761D01*
X103213571Y-102787380D01*
X103285000Y-102811190D01*
X103332619Y-102811190D01*
X103404047Y-102787380D01*
X103427857Y-102763571D01*
X103427857Y-102596904D01*
X103332619Y-102596904D01*
X103642142Y-102811190D02*
X103642142Y-102311190D01*
X103927857Y-102811190D01*
X103927857Y-102311190D01*
X104165952Y-102811190D02*
X104165952Y-102311190D01*
X104285000Y-102311190D01*
X104356428Y-102335000D01*
X104404047Y-102382619D01*
X104427857Y-102430238D01*
X104451666Y-102525476D01*
X104451666Y-102596904D01*
X104427857Y-102692142D01*
X104404047Y-102739761D01*
X104356428Y-102787380D01*
X104285000Y-102811190D01*
X104165952Y-102811190D01*
X103589047Y-122632534D02*
X103541428Y-122608724D01*
X103470000Y-122608724D01*
X103398571Y-122632534D01*
X103350952Y-122680153D01*
X103327142Y-122727772D01*
X103303333Y-122823010D01*
X103303333Y-122894438D01*
X103327142Y-122989676D01*
X103350952Y-123037295D01*
X103398571Y-123084914D01*
X103470000Y-123108724D01*
X103517619Y-123108724D01*
X103589047Y-123084914D01*
X103612857Y-123061105D01*
X103612857Y-122894438D01*
X103517619Y-122894438D01*
X103827142Y-123108724D02*
X103827142Y-122608724D01*
X104112857Y-123108724D01*
X104112857Y-122608724D01*
X104350952Y-123108724D02*
X104350952Y-122608724D01*
X104470000Y-122608724D01*
X104541428Y-122632534D01*
X104589047Y-122680153D01*
X104612857Y-122727772D01*
X104636666Y-122823010D01*
X104636666Y-122894438D01*
X104612857Y-122989676D01*
X104589047Y-123037295D01*
X104541428Y-123084914D01*
X104470000Y-123108724D01*
X104350952Y-123108724D01*
X106289761Y-122608724D02*
X106051666Y-122608724D01*
X106027857Y-122846819D01*
X106051666Y-122823010D01*
X106099285Y-122799200D01*
X106218333Y-122799200D01*
X106265952Y-122823010D01*
X106289761Y-122846819D01*
X106313571Y-122894438D01*
X106313571Y-123013486D01*
X106289761Y-123061105D01*
X106265952Y-123084914D01*
X106218333Y-123108724D01*
X106099285Y-123108724D01*
X106051666Y-123084914D01*
X106027857Y-123061105D01*
X106456428Y-122608724D02*
X106623095Y-123108724D01*
X106789761Y-122608724D01*
X108277857Y-123084914D02*
X108349285Y-123108724D01*
X108468333Y-123108724D01*
X108515952Y-123084914D01*
X108539761Y-123061105D01*
X108563571Y-123013486D01*
X108563571Y-122965867D01*
X108539761Y-122918248D01*
X108515952Y-122894438D01*
X108468333Y-122870629D01*
X108373095Y-122846819D01*
X108325476Y-122823010D01*
X108301666Y-122799200D01*
X108277857Y-122751581D01*
X108277857Y-122703962D01*
X108301666Y-122656343D01*
X108325476Y-122632534D01*
X108373095Y-122608724D01*
X108492142Y-122608724D01*
X108563571Y-122632534D01*
X108777857Y-123108724D02*
X108777857Y-122608724D01*
X108896904Y-122608724D01*
X108968333Y-122632534D01*
X109015952Y-122680153D01*
X109039761Y-122727772D01*
X109063571Y-122823010D01*
X109063571Y-122894438D01*
X109039761Y-122989676D01*
X109015952Y-123037295D01*
X108968333Y-123084914D01*
X108896904Y-123108724D01*
X108777857Y-123108724D01*
X109254047Y-122965867D02*
X109492142Y-122965867D01*
X109206428Y-123108724D02*
X109373095Y-122608724D01*
X109539761Y-123108724D01*
X110989761Y-123084914D02*
X111061190Y-123108724D01*
X111180238Y-123108724D01*
X111227857Y-123084914D01*
X111251666Y-123061105D01*
X111275476Y-123013486D01*
X111275476Y-122965867D01*
X111251666Y-122918248D01*
X111227857Y-122894438D01*
X111180238Y-122870629D01*
X111085000Y-122846819D01*
X111037380Y-122823010D01*
X111013571Y-122799200D01*
X110989761Y-122751581D01*
X110989761Y-122703962D01*
X111013571Y-122656343D01*
X111037380Y-122632534D01*
X111085000Y-122608724D01*
X111204047Y-122608724D01*
X111275476Y-122632534D01*
X111775476Y-123061105D02*
X111751666Y-123084914D01*
X111680238Y-123108724D01*
X111632619Y-123108724D01*
X111561190Y-123084914D01*
X111513571Y-123037295D01*
X111489761Y-122989676D01*
X111465952Y-122894438D01*
X111465952Y-122823010D01*
X111489761Y-122727772D01*
X111513571Y-122680153D01*
X111561190Y-122632534D01*
X111632619Y-122608724D01*
X111680238Y-122608724D01*
X111751666Y-122632534D01*
X111775476Y-122656343D01*
X112227857Y-123108724D02*
X111989761Y-123108724D01*
X111989761Y-122608724D01*
X114001666Y-123108724D02*
X113835000Y-122870629D01*
X113715952Y-123108724D02*
X113715952Y-122608724D01*
X113906428Y-122608724D01*
X113954047Y-122632534D01*
X113977857Y-122656343D01*
X114001666Y-122703962D01*
X114001666Y-122775391D01*
X113977857Y-122823010D01*
X113954047Y-122846819D01*
X113906428Y-122870629D01*
X113715952Y-122870629D01*
X114168333Y-122608724D02*
X114501666Y-123108724D01*
X114501666Y-122608724D02*
X114168333Y-123108724D01*
X116162620Y-122608724D02*
X116448334Y-122608724D01*
X116305477Y-123108724D02*
X116305477Y-122608724D01*
X116567382Y-122608724D02*
X116900715Y-123108724D01*
X116900715Y-122608724D02*
X116567382Y-123108724D01*
X118632619Y-123108724D02*
X118632619Y-122608724D01*
X118870714Y-123108724D02*
X118870714Y-122608724D01*
X119156428Y-123108724D01*
X119156428Y-122608724D01*
X119323095Y-122608724D02*
X119608809Y-122608724D01*
X119465952Y-123108724D02*
X119465952Y-122608724D01*
X120920619Y-123108724D02*
X120920619Y-122608724D01*
X121111095Y-122608724D01*
X121158714Y-122632534D01*
X121182523Y-122656343D01*
X121206333Y-122703962D01*
X121206333Y-122775391D01*
X121182523Y-122823010D01*
X121158714Y-122846819D01*
X121111095Y-122870629D01*
X120920619Y-122870629D01*
X121373000Y-122608724D02*
X121492047Y-123108724D01*
X121587285Y-122751581D01*
X121682523Y-123108724D01*
X121801571Y-122608724D01*
X121992047Y-123108724D02*
X121992047Y-122608724D01*
X122158714Y-122965867D01*
X122325380Y-122608724D01*
X122325380Y-123108724D01*
D12*
%TO.C,U5*%
X102438095Y-114552380D02*
X102438095Y-115361904D01*
X102485714Y-115457142D01*
X102533333Y-115504761D01*
X102628571Y-115552380D01*
X102819047Y-115552380D01*
X102914285Y-115504761D01*
X102961904Y-115457142D01*
X103009523Y-115361904D01*
X103009523Y-114552380D01*
X103961904Y-114552380D02*
X103485714Y-114552380D01*
X103438095Y-115028571D01*
X103485714Y-114980952D01*
X103580952Y-114933333D01*
X103819047Y-114933333D01*
X103914285Y-114980952D01*
X103961904Y-115028571D01*
X104009523Y-115123809D01*
X104009523Y-115361904D01*
X103961904Y-115457142D01*
X103914285Y-115504761D01*
X103819047Y-115552380D01*
X103580952Y-115552380D01*
X103485714Y-115504761D01*
X103438095Y-115457142D01*
%TO.C,J1*%
X143066666Y-100752380D02*
X143066666Y-101466666D01*
X143019047Y-101609523D01*
X142923809Y-101704761D01*
X142780952Y-101752380D01*
X142685714Y-101752380D01*
X144066666Y-101752380D02*
X143495238Y-101752380D01*
X143780952Y-101752380D02*
X143780952Y-100752380D01*
X143685714Y-100895238D01*
X143590476Y-100990476D01*
X143495238Y-101038095D01*
D13*
%TO.C,U2*%
X147532380Y-109004523D02*
X147532380Y-110032619D01*
X147592857Y-110153571D01*
X147653333Y-110214047D01*
X147774285Y-110274523D01*
X148016190Y-110274523D01*
X148137142Y-110214047D01*
X148197619Y-110153571D01*
X148258095Y-110032619D01*
X148258095Y-109004523D01*
X148802380Y-109125476D02*
X148862857Y-109065000D01*
X148983809Y-109004523D01*
X149286190Y-109004523D01*
X149407142Y-109065000D01*
X149467619Y-109125476D01*
X149528095Y-109246428D01*
X149528095Y-109367380D01*
X149467619Y-109548809D01*
X148741904Y-110274523D01*
X149528095Y-110274523D01*
D10*
%TO.C,VDD_RF_SW1*%
X107476190Y-115661190D02*
X107642857Y-116161190D01*
X107809523Y-115661190D01*
X107976190Y-116161190D02*
X107976190Y-115661190D01*
X108095238Y-115661190D01*
X108166666Y-115685000D01*
X108214285Y-115732619D01*
X108238095Y-115780238D01*
X108261904Y-115875476D01*
X108261904Y-115946904D01*
X108238095Y-116042142D01*
X108214285Y-116089761D01*
X108166666Y-116137380D01*
X108095238Y-116161190D01*
X107976190Y-116161190D01*
X108476190Y-116161190D02*
X108476190Y-115661190D01*
X108595238Y-115661190D01*
X108666666Y-115685000D01*
X108714285Y-115732619D01*
X108738095Y-115780238D01*
X108761904Y-115875476D01*
X108761904Y-115946904D01*
X108738095Y-116042142D01*
X108714285Y-116089761D01*
X108666666Y-116137380D01*
X108595238Y-116161190D01*
X108476190Y-116161190D01*
X108857142Y-116208809D02*
X109238095Y-116208809D01*
X109642857Y-116161190D02*
X109476190Y-115923095D01*
X109357142Y-116161190D02*
X109357142Y-115661190D01*
X109547619Y-115661190D01*
X109595238Y-115685000D01*
X109619047Y-115708809D01*
X109642857Y-115756428D01*
X109642857Y-115827857D01*
X109619047Y-115875476D01*
X109595238Y-115899285D01*
X109547619Y-115923095D01*
X109357142Y-115923095D01*
X110023809Y-115899285D02*
X109857142Y-115899285D01*
X109857142Y-116161190D02*
X109857142Y-115661190D01*
X110095238Y-115661190D01*
X110166666Y-116208809D02*
X110547619Y-116208809D01*
X110642857Y-116137380D02*
X110714285Y-116161190D01*
X110833333Y-116161190D01*
X110880952Y-116137380D01*
X110904761Y-116113571D01*
X110928571Y-116065952D01*
X110928571Y-116018333D01*
X110904761Y-115970714D01*
X110880952Y-115946904D01*
X110833333Y-115923095D01*
X110738095Y-115899285D01*
X110690476Y-115875476D01*
X110666666Y-115851666D01*
X110642857Y-115804047D01*
X110642857Y-115756428D01*
X110666666Y-115708809D01*
X110690476Y-115685000D01*
X110738095Y-115661190D01*
X110857142Y-115661190D01*
X110928571Y-115685000D01*
X111095238Y-115661190D02*
X111214285Y-116161190D01*
X111309523Y-115804047D01*
X111404761Y-116161190D01*
X111523809Y-115661190D01*
X111976190Y-116161190D02*
X111690476Y-116161190D01*
X111833333Y-116161190D02*
X111833333Y-115661190D01*
X111785714Y-115732619D01*
X111738095Y-115780238D01*
X111690476Y-115804047D01*
D14*
%TO.C,Q1*%
X134104761Y-106647619D02*
X134009523Y-106600000D01*
X133914285Y-106504761D01*
X133771428Y-106361904D01*
X133676190Y-106314285D01*
X133580952Y-106314285D01*
X133628571Y-106552380D02*
X133533333Y-106504761D01*
X133438095Y-106409523D01*
X133390476Y-106219047D01*
X133390476Y-105885714D01*
X133438095Y-105695238D01*
X133533333Y-105600000D01*
X133628571Y-105552380D01*
X133819047Y-105552380D01*
X133914285Y-105600000D01*
X134009523Y-105695238D01*
X134057142Y-105885714D01*
X134057142Y-106219047D01*
X134009523Y-106409523D01*
X133914285Y-106504761D01*
X133819047Y-106552380D01*
X133628571Y-106552380D01*
X135009523Y-106552380D02*
X134438095Y-106552380D01*
X134723809Y-106552380D02*
X134723809Y-105552380D01*
X134628571Y-105695238D01*
X134533333Y-105790476D01*
X134438095Y-105838095D01*
D10*
%TO.C,ANT_LR112x1*%
X156583333Y-109969047D02*
X156583333Y-109730952D01*
X156726190Y-110016666D02*
X156226190Y-109850000D01*
X156726190Y-109683333D01*
X156726190Y-109516666D02*
X156226190Y-109516666D01*
X156726190Y-109230952D01*
X156226190Y-109230952D01*
X156226190Y-109064285D02*
X156226190Y-108778571D01*
X156726190Y-108921428D02*
X156226190Y-108921428D01*
X156773809Y-108730952D02*
X156773809Y-108350000D01*
X156726190Y-107992857D02*
X156726190Y-108230952D01*
X156226190Y-108230952D01*
X156726190Y-107540476D02*
X156488095Y-107707142D01*
X156726190Y-107826190D02*
X156226190Y-107826190D01*
X156226190Y-107635714D01*
X156250000Y-107588095D01*
X156273809Y-107564285D01*
X156321428Y-107540476D01*
X156392857Y-107540476D01*
X156440476Y-107564285D01*
X156464285Y-107588095D01*
X156488095Y-107635714D01*
X156488095Y-107826190D01*
X156726190Y-107064285D02*
X156726190Y-107350000D01*
X156726190Y-107207142D02*
X156226190Y-107207142D01*
X156297619Y-107254761D01*
X156345238Y-107302380D01*
X156369047Y-107350000D01*
X156726190Y-106588095D02*
X156726190Y-106873809D01*
X156726190Y-106730952D02*
X156226190Y-106730952D01*
X156297619Y-106778571D01*
X156345238Y-106826190D01*
X156369047Y-106873809D01*
X156273809Y-106397619D02*
X156250000Y-106373809D01*
X156226190Y-106326190D01*
X156226190Y-106207142D01*
X156250000Y-106159523D01*
X156273809Y-106135714D01*
X156321428Y-106111904D01*
X156369047Y-106111904D01*
X156440476Y-106135714D01*
X156726190Y-106421428D01*
X156726190Y-106111904D01*
X156726190Y-105945238D02*
X156392857Y-105683333D01*
X156392857Y-105945238D02*
X156726190Y-105683333D01*
X156726190Y-105230952D02*
X156726190Y-105516666D01*
X156726190Y-105373809D02*
X156226190Y-105373809D01*
X156297619Y-105421428D01*
X156345238Y-105469047D01*
X156369047Y-105516666D01*
D12*
%TO.C,Q3*%
X129504761Y-109847619D02*
X129409523Y-109800000D01*
X129314285Y-109704761D01*
X129171428Y-109561904D01*
X129076190Y-109514285D01*
X128980952Y-109514285D01*
X129028571Y-109752380D02*
X128933333Y-109704761D01*
X128838095Y-109609523D01*
X128790476Y-109419047D01*
X128790476Y-109085714D01*
X128838095Y-108895238D01*
X128933333Y-108800000D01*
X129028571Y-108752380D01*
X129219047Y-108752380D01*
X129314285Y-108800000D01*
X129409523Y-108895238D01*
X129457142Y-109085714D01*
X129457142Y-109419047D01*
X129409523Y-109609523D01*
X129314285Y-109704761D01*
X129219047Y-109752380D01*
X129028571Y-109752380D01*
X129790476Y-108752380D02*
X130409523Y-108752380D01*
X130076190Y-109133333D01*
X130219047Y-109133333D01*
X130314285Y-109180952D01*
X130361904Y-109228571D01*
X130409523Y-109323809D01*
X130409523Y-109561904D01*
X130361904Y-109657142D01*
X130314285Y-109704761D01*
X130219047Y-109752380D01*
X129933333Y-109752380D01*
X129838095Y-109704761D01*
X129790476Y-109657142D01*
%TO.C,RX1*%
X126952380Y-121427857D02*
X126476190Y-121761190D01*
X126952380Y-121999285D02*
X125952380Y-121999285D01*
X125952380Y-121618333D01*
X126000000Y-121523095D01*
X126047619Y-121475476D01*
X126142857Y-121427857D01*
X126285714Y-121427857D01*
X126380952Y-121475476D01*
X126428571Y-121523095D01*
X126476190Y-121618333D01*
X126476190Y-121999285D01*
X125952380Y-121094523D02*
X126952380Y-120427857D01*
X125952380Y-120427857D02*
X126952380Y-121094523D01*
X126952380Y-119523095D02*
X126952380Y-120094523D01*
X126952380Y-119808809D02*
X125952380Y-119808809D01*
X126095238Y-119904047D01*
X126190476Y-119999285D01*
X126238095Y-120094523D01*
D10*
%TO.C,VDD_RADIO1*%
X117109523Y-113531190D02*
X117276190Y-114031190D01*
X117442857Y-113531190D01*
X117609523Y-114031190D02*
X117609523Y-113531190D01*
X117728571Y-113531190D01*
X117800000Y-113555000D01*
X117847619Y-113602619D01*
X117871428Y-113650238D01*
X117895238Y-113745476D01*
X117895238Y-113816904D01*
X117871428Y-113912142D01*
X117847619Y-113959761D01*
X117800000Y-114007380D01*
X117728571Y-114031190D01*
X117609523Y-114031190D01*
X118109523Y-114031190D02*
X118109523Y-113531190D01*
X118228571Y-113531190D01*
X118300000Y-113555000D01*
X118347619Y-113602619D01*
X118371428Y-113650238D01*
X118395238Y-113745476D01*
X118395238Y-113816904D01*
X118371428Y-113912142D01*
X118347619Y-113959761D01*
X118300000Y-114007380D01*
X118228571Y-114031190D01*
X118109523Y-114031190D01*
X118490476Y-114078809D02*
X118871428Y-114078809D01*
X119276190Y-114031190D02*
X119109523Y-113793095D01*
X118990476Y-114031190D02*
X118990476Y-113531190D01*
X119180952Y-113531190D01*
X119228571Y-113555000D01*
X119252380Y-113578809D01*
X119276190Y-113626428D01*
X119276190Y-113697857D01*
X119252380Y-113745476D01*
X119228571Y-113769285D01*
X119180952Y-113793095D01*
X118990476Y-113793095D01*
X119466666Y-113888333D02*
X119704761Y-113888333D01*
X119419047Y-114031190D02*
X119585714Y-113531190D01*
X119752380Y-114031190D01*
X119919047Y-114031190D02*
X119919047Y-113531190D01*
X120038095Y-113531190D01*
X120109523Y-113555000D01*
X120157142Y-113602619D01*
X120180952Y-113650238D01*
X120204761Y-113745476D01*
X120204761Y-113816904D01*
X120180952Y-113912142D01*
X120157142Y-113959761D01*
X120109523Y-114007380D01*
X120038095Y-114031190D01*
X119919047Y-114031190D01*
X120419047Y-114031190D02*
X120419047Y-113531190D01*
X120752380Y-113531190D02*
X120847619Y-113531190D01*
X120895238Y-113555000D01*
X120942857Y-113602619D01*
X120966666Y-113697857D01*
X120966666Y-113864523D01*
X120942857Y-113959761D01*
X120895238Y-114007380D01*
X120847619Y-114031190D01*
X120752380Y-114031190D01*
X120704761Y-114007380D01*
X120657142Y-113959761D01*
X120633333Y-113864523D01*
X120633333Y-113697857D01*
X120657142Y-113602619D01*
X120704761Y-113555000D01*
X120752380Y-113531190D01*
X121442857Y-114031190D02*
X121157142Y-114031190D01*
X121300000Y-114031190D02*
X121300000Y-113531190D01*
X121252380Y-113602619D01*
X121204761Y-113650238D01*
X121157142Y-113674047D01*
D12*
%TO.C,J2*%
X142826666Y-123452380D02*
X142826666Y-124166666D01*
X142779047Y-124309523D01*
X142683809Y-124404761D01*
X142540952Y-124452380D01*
X142445714Y-124452380D01*
X143255238Y-123547619D02*
X143302857Y-123500000D01*
X143398095Y-123452380D01*
X143636190Y-123452380D01*
X143731428Y-123500000D01*
X143779047Y-123547619D01*
X143826666Y-123642857D01*
X143826666Y-123738095D01*
X143779047Y-123880952D01*
X143207619Y-124452380D01*
X143826666Y-124452380D01*
D10*
%TO.C,LR112x_1*%
X132426190Y-120040476D02*
X132426190Y-120278571D01*
X131926190Y-120278571D01*
X132426190Y-119588095D02*
X132188095Y-119754761D01*
X132426190Y-119873809D02*
X131926190Y-119873809D01*
X131926190Y-119683333D01*
X131950000Y-119635714D01*
X131973809Y-119611904D01*
X132021428Y-119588095D01*
X132092857Y-119588095D01*
X132140476Y-119611904D01*
X132164285Y-119635714D01*
X132188095Y-119683333D01*
X132188095Y-119873809D01*
X132426190Y-119111904D02*
X132426190Y-119397619D01*
X132426190Y-119254761D02*
X131926190Y-119254761D01*
X131997619Y-119302380D01*
X132045238Y-119350000D01*
X132069047Y-119397619D01*
X132426190Y-118635714D02*
X132426190Y-118921428D01*
X132426190Y-118778571D02*
X131926190Y-118778571D01*
X131997619Y-118826190D01*
X132045238Y-118873809D01*
X132069047Y-118921428D01*
X131973809Y-118445238D02*
X131950000Y-118421428D01*
X131926190Y-118373809D01*
X131926190Y-118254761D01*
X131950000Y-118207142D01*
X131973809Y-118183333D01*
X132021428Y-118159523D01*
X132069047Y-118159523D01*
X132140476Y-118183333D01*
X132426190Y-118469047D01*
X132426190Y-118159523D01*
X132426190Y-117992857D02*
X132092857Y-117730952D01*
X132092857Y-117992857D02*
X132426190Y-117730952D01*
X132473809Y-117659523D02*
X132473809Y-117278571D01*
X132426190Y-116897619D02*
X132426190Y-117183333D01*
X132426190Y-117040476D02*
X131926190Y-117040476D01*
X131997619Y-117088095D01*
X132045238Y-117135714D01*
X132069047Y-117183333D01*
D12*
%TO.C,U1*%
X130138095Y-116452380D02*
X130138095Y-117261904D01*
X130185714Y-117357142D01*
X130233333Y-117404761D01*
X130328571Y-117452380D01*
X130519047Y-117452380D01*
X130614285Y-117404761D01*
X130661904Y-117357142D01*
X130709523Y-117261904D01*
X130709523Y-116452380D01*
X131709523Y-117452380D02*
X131138095Y-117452380D01*
X131423809Y-117452380D02*
X131423809Y-116452380D01*
X131328571Y-116595238D01*
X131233333Y-116690476D01*
X131138095Y-116738095D01*
D15*
%TO.C,U7*%
X109538095Y-118152380D02*
X109538095Y-118961904D01*
X109585714Y-119057142D01*
X109633333Y-119104761D01*
X109728571Y-119152380D01*
X109919047Y-119152380D01*
X110014285Y-119104761D01*
X110061904Y-119057142D01*
X110109523Y-118961904D01*
X110109523Y-118152380D01*
X110490476Y-118152380D02*
X111157142Y-118152380D01*
X110728571Y-119152380D01*
D10*
%TO.C,LR112x_2*%
X133526190Y-120130476D02*
X133526190Y-120368571D01*
X133026190Y-120368571D01*
X133526190Y-119678095D02*
X133288095Y-119844761D01*
X133526190Y-119963809D02*
X133026190Y-119963809D01*
X133026190Y-119773333D01*
X133050000Y-119725714D01*
X133073809Y-119701904D01*
X133121428Y-119678095D01*
X133192857Y-119678095D01*
X133240476Y-119701904D01*
X133264285Y-119725714D01*
X133288095Y-119773333D01*
X133288095Y-119963809D01*
X133526190Y-119201904D02*
X133526190Y-119487619D01*
X133526190Y-119344761D02*
X133026190Y-119344761D01*
X133097619Y-119392380D01*
X133145238Y-119440000D01*
X133169047Y-119487619D01*
X133526190Y-118725714D02*
X133526190Y-119011428D01*
X133526190Y-118868571D02*
X133026190Y-118868571D01*
X133097619Y-118916190D01*
X133145238Y-118963809D01*
X133169047Y-119011428D01*
X133073809Y-118535238D02*
X133050000Y-118511428D01*
X133026190Y-118463809D01*
X133026190Y-118344761D01*
X133050000Y-118297142D01*
X133073809Y-118273333D01*
X133121428Y-118249523D01*
X133169047Y-118249523D01*
X133240476Y-118273333D01*
X133526190Y-118559047D01*
X133526190Y-118249523D01*
X133526190Y-118082857D02*
X133192857Y-117820952D01*
X133192857Y-118082857D02*
X133526190Y-117820952D01*
X133573809Y-117749523D02*
X133573809Y-117368571D01*
X133073809Y-117273333D02*
X133050000Y-117249523D01*
X133026190Y-117201904D01*
X133026190Y-117082857D01*
X133050000Y-117035238D01*
X133073809Y-117011428D01*
X133121428Y-116987619D01*
X133169047Y-116987619D01*
X133240476Y-117011428D01*
X133526190Y-117297142D01*
X133526190Y-116987619D01*
%TO.C,ANT_GNSS1*%
X152983333Y-118388095D02*
X152983333Y-118150000D01*
X153126190Y-118435714D02*
X152626190Y-118269047D01*
X153126190Y-118102380D01*
X153126190Y-117935714D02*
X152626190Y-117935714D01*
X153126190Y-117650000D01*
X152626190Y-117650000D01*
X152626190Y-117483333D02*
X152626190Y-117197619D01*
X153126190Y-117340476D02*
X152626190Y-117340476D01*
X153173809Y-117150000D02*
X153173809Y-116769047D01*
X152650000Y-116388095D02*
X152626190Y-116435714D01*
X152626190Y-116507142D01*
X152650000Y-116578571D01*
X152697619Y-116626190D01*
X152745238Y-116650000D01*
X152840476Y-116673809D01*
X152911904Y-116673809D01*
X153007142Y-116650000D01*
X153054761Y-116626190D01*
X153102380Y-116578571D01*
X153126190Y-116507142D01*
X153126190Y-116459523D01*
X153102380Y-116388095D01*
X153078571Y-116364285D01*
X152911904Y-116364285D01*
X152911904Y-116459523D01*
X153126190Y-116150000D02*
X152626190Y-116150000D01*
X153126190Y-115864285D01*
X152626190Y-115864285D01*
X153102380Y-115650000D02*
X153126190Y-115578571D01*
X153126190Y-115459523D01*
X153102380Y-115411904D01*
X153078571Y-115388095D01*
X153030952Y-115364285D01*
X152983333Y-115364285D01*
X152935714Y-115388095D01*
X152911904Y-115411904D01*
X152888095Y-115459523D01*
X152864285Y-115554761D01*
X152840476Y-115602380D01*
X152816666Y-115626190D01*
X152769047Y-115650000D01*
X152721428Y-115650000D01*
X152673809Y-115626190D01*
X152650000Y-115602380D01*
X152626190Y-115554761D01*
X152626190Y-115435714D01*
X152650000Y-115364285D01*
X153102380Y-115173809D02*
X153126190Y-115102380D01*
X153126190Y-114983333D01*
X153102380Y-114935714D01*
X153078571Y-114911904D01*
X153030952Y-114888095D01*
X152983333Y-114888095D01*
X152935714Y-114911904D01*
X152911904Y-114935714D01*
X152888095Y-114983333D01*
X152864285Y-115078571D01*
X152840476Y-115126190D01*
X152816666Y-115150000D01*
X152769047Y-115173809D01*
X152721428Y-115173809D01*
X152673809Y-115150000D01*
X152650000Y-115126190D01*
X152626190Y-115078571D01*
X152626190Y-114959523D01*
X152650000Y-114888095D01*
X153126190Y-114411904D02*
X153126190Y-114697619D01*
X153126190Y-114554761D02*
X152626190Y-114554761D01*
X152697619Y-114602380D01*
X152745238Y-114650000D01*
X152769047Y-114697619D01*
D12*
%TO.C,TX1*%
X128552380Y-122038095D02*
X128552380Y-121466666D01*
X129552380Y-121752380D02*
X128552380Y-121752380D01*
X128552380Y-121228571D02*
X129552380Y-120561904D01*
X128552380Y-120561904D02*
X129552380Y-121228571D01*
X129552380Y-119657142D02*
X129552380Y-120228571D01*
X129552380Y-119942857D02*
X128552380Y-119942857D01*
X128695238Y-120038095D01*
X128790476Y-120133333D01*
X128838095Y-120228571D01*
D10*
%TO.C,Scanning1*%
X138369761Y-104302380D02*
X138441190Y-104326190D01*
X138560238Y-104326190D01*
X138607857Y-104302380D01*
X138631666Y-104278571D01*
X138655476Y-104230952D01*
X138655476Y-104183333D01*
X138631666Y-104135714D01*
X138607857Y-104111904D01*
X138560238Y-104088095D01*
X138465000Y-104064285D01*
X138417380Y-104040476D01*
X138393571Y-104016666D01*
X138369761Y-103969047D01*
X138369761Y-103921428D01*
X138393571Y-103873809D01*
X138417380Y-103850000D01*
X138465000Y-103826190D01*
X138584047Y-103826190D01*
X138655476Y-103850000D01*
X139084047Y-104302380D02*
X139036428Y-104326190D01*
X138941190Y-104326190D01*
X138893571Y-104302380D01*
X138869761Y-104278571D01*
X138845952Y-104230952D01*
X138845952Y-104088095D01*
X138869761Y-104040476D01*
X138893571Y-104016666D01*
X138941190Y-103992857D01*
X139036428Y-103992857D01*
X139084047Y-104016666D01*
X139512619Y-104326190D02*
X139512619Y-104064285D01*
X139488809Y-104016666D01*
X139441190Y-103992857D01*
X139345952Y-103992857D01*
X139298333Y-104016666D01*
X139512619Y-104302380D02*
X139465000Y-104326190D01*
X139345952Y-104326190D01*
X139298333Y-104302380D01*
X139274523Y-104254761D01*
X139274523Y-104207142D01*
X139298333Y-104159523D01*
X139345952Y-104135714D01*
X139465000Y-104135714D01*
X139512619Y-104111904D01*
X139750714Y-103992857D02*
X139750714Y-104326190D01*
X139750714Y-104040476D02*
X139774523Y-104016666D01*
X139822142Y-103992857D01*
X139893571Y-103992857D01*
X139941190Y-104016666D01*
X139965000Y-104064285D01*
X139965000Y-104326190D01*
X140203095Y-103992857D02*
X140203095Y-104326190D01*
X140203095Y-104040476D02*
X140226904Y-104016666D01*
X140274523Y-103992857D01*
X140345952Y-103992857D01*
X140393571Y-104016666D01*
X140417380Y-104064285D01*
X140417380Y-104326190D01*
X140655476Y-104326190D02*
X140655476Y-103992857D01*
X140655476Y-103826190D02*
X140631666Y-103850000D01*
X140655476Y-103873809D01*
X140679285Y-103850000D01*
X140655476Y-103826190D01*
X140655476Y-103873809D01*
X140893571Y-103992857D02*
X140893571Y-104326190D01*
X140893571Y-104040476D02*
X140917380Y-104016666D01*
X140965000Y-103992857D01*
X141036428Y-103992857D01*
X141084047Y-104016666D01*
X141107857Y-104064285D01*
X141107857Y-104326190D01*
X141560238Y-103992857D02*
X141560238Y-104397619D01*
X141536428Y-104445238D01*
X141512619Y-104469047D01*
X141465000Y-104492857D01*
X141393571Y-104492857D01*
X141345952Y-104469047D01*
X141560238Y-104302380D02*
X141512619Y-104326190D01*
X141417380Y-104326190D01*
X141369761Y-104302380D01*
X141345952Y-104278571D01*
X141322142Y-104230952D01*
X141322142Y-104088095D01*
X141345952Y-104040476D01*
X141369761Y-104016666D01*
X141417380Y-103992857D01*
X141512619Y-103992857D01*
X141560238Y-104016666D01*
X142060238Y-104326190D02*
X141774523Y-104326190D01*
X141917380Y-104326190D02*
X141917380Y-103826190D01*
X141869761Y-103897619D01*
X141822142Y-103945238D01*
X141774523Y-103969047D01*
%TO.C,U8*%
X147619047Y-114426190D02*
X147619047Y-114830952D01*
X147642857Y-114878571D01*
X147666666Y-114902380D01*
X147714285Y-114926190D01*
X147809523Y-114926190D01*
X147857142Y-114902380D01*
X147880952Y-114878571D01*
X147904761Y-114830952D01*
X147904761Y-114426190D01*
X148214285Y-114640476D02*
X148166666Y-114616666D01*
X148142857Y-114592857D01*
X148119047Y-114545238D01*
X148119047Y-114521428D01*
X148142857Y-114473809D01*
X148166666Y-114450000D01*
X148214285Y-114426190D01*
X148309523Y-114426190D01*
X148357142Y-114450000D01*
X148380952Y-114473809D01*
X148404761Y-114521428D01*
X148404761Y-114545238D01*
X148380952Y-114592857D01*
X148357142Y-114616666D01*
X148309523Y-114640476D01*
X148214285Y-114640476D01*
X148166666Y-114664285D01*
X148142857Y-114688095D01*
X148119047Y-114735714D01*
X148119047Y-114830952D01*
X148142857Y-114878571D01*
X148166666Y-114902380D01*
X148214285Y-114926190D01*
X148309523Y-114926190D01*
X148357142Y-114902380D01*
X148380952Y-114878571D01*
X148404761Y-114830952D01*
X148404761Y-114735714D01*
X148380952Y-114688095D01*
X148357142Y-114664285D01*
X148309523Y-114640476D01*
D12*
%TO.C,Q2*%
X129204761Y-106547619D02*
X129109523Y-106500000D01*
X129014285Y-106404761D01*
X128871428Y-106261904D01*
X128776190Y-106214285D01*
X128680952Y-106214285D01*
X128728571Y-106452380D02*
X128633333Y-106404761D01*
X128538095Y-106309523D01*
X128490476Y-106119047D01*
X128490476Y-105785714D01*
X128538095Y-105595238D01*
X128633333Y-105500000D01*
X128728571Y-105452380D01*
X128919047Y-105452380D01*
X129014285Y-105500000D01*
X129109523Y-105595238D01*
X129157142Y-105785714D01*
X129157142Y-106119047D01*
X129109523Y-106309523D01*
X129014285Y-106404761D01*
X128919047Y-106452380D01*
X128728571Y-106452380D01*
X129538095Y-105547619D02*
X129585714Y-105500000D01*
X129680952Y-105452380D01*
X129919047Y-105452380D01*
X130014285Y-105500000D01*
X130061904Y-105547619D01*
X130109523Y-105642857D01*
X130109523Y-105738095D01*
X130061904Y-105880952D01*
X129490476Y-106452380D01*
X130109523Y-106452380D01*
D10*
%TO.C,ANT_WIFI1*%
X156583333Y-120038095D02*
X156583333Y-119800000D01*
X156726190Y-120085714D02*
X156226190Y-119919047D01*
X156726190Y-119752380D01*
X156726190Y-119585714D02*
X156226190Y-119585714D01*
X156726190Y-119300000D01*
X156226190Y-119300000D01*
X156226190Y-119133333D02*
X156226190Y-118847619D01*
X156726190Y-118990476D02*
X156226190Y-118990476D01*
X156773809Y-118800000D02*
X156773809Y-118419047D01*
X156226190Y-118347619D02*
X156726190Y-118228571D01*
X156369047Y-118133333D01*
X156726190Y-118038095D01*
X156226190Y-117919047D01*
X156726190Y-117728571D02*
X156226190Y-117728571D01*
X156464285Y-117323809D02*
X156464285Y-117490476D01*
X156726190Y-117490476D02*
X156226190Y-117490476D01*
X156226190Y-117252380D01*
X156726190Y-117061904D02*
X156226190Y-117061904D01*
X156726190Y-116561904D02*
X156726190Y-116847619D01*
X156726190Y-116704761D02*
X156226190Y-116704761D01*
X156297619Y-116752380D01*
X156345238Y-116800000D01*
X156369047Y-116847619D01*
D16*
%TO.C,CON1*%
X120415000Y-122875000D02*
X120415000Y-125415000D01*
X120415000Y-100015000D02*
X120415000Y-102555000D01*
X117875000Y-100015000D02*
X117875000Y-102555000D01*
X115335000Y-100015000D02*
X115335000Y-102555000D01*
X112795000Y-100015000D02*
X112795000Y-102555000D01*
X110255000Y-100015000D02*
X110255000Y-102555000D01*
X107715000Y-100015000D02*
X107715000Y-102555000D01*
X105185000Y-99985000D02*
X105185000Y-102525000D01*
X117875000Y-122875000D02*
X117875000Y-125415000D01*
X115335000Y-122875000D02*
X115335000Y-125415000D01*
X112795000Y-122875000D02*
X112795000Y-125415000D01*
X110255000Y-122875000D02*
X110255000Y-125415000D01*
X107715000Y-122875000D02*
X107715000Y-125415000D01*
X105175000Y-122875000D02*
X105175000Y-125415000D01*
D15*
%TO.C,U5*%
X102900000Y-118100000D02*
X102400000Y-118100000D01*
X104600000Y-115900000D02*
X104600000Y-116400000D01*
X102400000Y-118100000D02*
X102400000Y-117600000D01*
X102400000Y-117600000D02*
X102400000Y-117600000D01*
X102900000Y-115900000D02*
X102400000Y-115900000D01*
X102400000Y-115900000D02*
X102400000Y-115900000D01*
X104600000Y-117600000D02*
X104600000Y-118100000D01*
X104100000Y-118100000D02*
X104100000Y-118100000D01*
X104600000Y-118100000D02*
X104100000Y-118100000D01*
X104600000Y-116400000D02*
X104600000Y-116400000D01*
X104100000Y-115900000D02*
X104600000Y-115900000D01*
%TO.C,R1*%
X122422500Y-110437258D02*
X122422500Y-109962742D01*
X121377500Y-110437258D02*
X121377500Y-109962742D01*
%TO.C,J1*%
X124070000Y-102630000D02*
X124070000Y-101300000D01*
X126670000Y-102630000D02*
X141970000Y-102630000D01*
X125400000Y-102630000D02*
X124070000Y-102630000D01*
X126670000Y-99970000D02*
X141970000Y-99970000D01*
X126670000Y-102630000D02*
X126670000Y-99970000D01*
X141970000Y-102630000D02*
X141970000Y-99970000D01*
%TO.C,C37*%
X104972164Y-122460000D02*
X105187836Y-122460000D01*
X104972164Y-121740000D02*
X105187836Y-121740000D01*
D17*
%TO.C,U2*%
X147250000Y-105850000D02*
G75*
G03*
X147250000Y-105850000I-125000J0D01*
G01*
D15*
%TO.C,C11*%
X143360000Y-105827836D02*
X143360000Y-105612164D01*
X142640000Y-105827836D02*
X142640000Y-105612164D01*
%TO.C,VDD_RF_SW1*%
X111030000Y-114905000D02*
X109700000Y-114905000D01*
X111030000Y-113575000D02*
X111030000Y-114905000D01*
X108370000Y-112305000D02*
X108370000Y-109705000D01*
X111030000Y-112305000D02*
X111030000Y-109705000D01*
X111030000Y-112305000D02*
X108370000Y-112305000D01*
X111030000Y-109705000D02*
X108370000Y-109705000D01*
%TO.C,C23*%
X138012164Y-112940000D02*
X138227836Y-112940000D01*
X138012164Y-113660000D02*
X138227836Y-113660000D01*
D18*
%TO.C,Q1*%
X131125000Y-107475000D02*
X131125000Y-107475000D01*
X131225000Y-107475000D02*
X131225000Y-107475000D01*
X131225000Y-107475000D02*
G75*
G03*
X131125000Y-107475000I-50000J0D01*
G01*
X131125000Y-107475000D02*
G75*
G03*
X131225000Y-107475000I50000J0D01*
G01*
D15*
%TO.C,C26*%
X144560000Y-113887836D02*
X144560000Y-113672164D01*
X143840000Y-113887836D02*
X143840000Y-113672164D01*
%TO.C,C9*%
X139840000Y-105787836D02*
X139840000Y-105572164D01*
X140560000Y-105787836D02*
X140560000Y-105572164D01*
%TO.C,ANT_LR112x1*%
X156735000Y-101250000D02*
X156735000Y-103950000D01*
X154015000Y-101840000D02*
X153385000Y-101840000D01*
X154015000Y-104000000D02*
X154015000Y-103360000D01*
X154015000Y-101200000D02*
X154015000Y-101840000D01*
%TO.C,C16*%
X143310000Y-108372164D02*
X143310000Y-108587836D01*
X142590000Y-108372164D02*
X142590000Y-108587836D01*
%TO.C,C10*%
X144312164Y-106560000D02*
X144527836Y-106560000D01*
X144312164Y-105840000D02*
X144527836Y-105840000D01*
%TO.C,C27*%
X136182282Y-116308601D02*
X136029779Y-116461104D01*
X136691399Y-116817718D02*
X136538896Y-116970221D01*
%TO.C,G\u002A\u002A\u002A*%
G36*
X104021576Y-106056178D02*
G01*
X104024432Y-105882296D01*
X104034948Y-105754010D01*
X104056046Y-105663766D01*
X104090649Y-105604009D01*
X104141679Y-105567186D01*
X104212059Y-105545741D01*
X104219596Y-105544278D01*
X104293747Y-105543877D01*
X104372570Y-105562878D01*
X104438329Y-105594492D01*
X104473289Y-105631931D01*
X104475147Y-105642086D01*
X104492654Y-105644815D01*
X104536592Y-105617837D01*
X104557237Y-105601380D01*
X104654953Y-105547421D01*
X104759661Y-105534784D01*
X104857287Y-105561332D01*
X104933755Y-105624926D01*
X104956089Y-105661982D01*
X104969866Y-105715175D01*
X104983139Y-105808764D01*
X104994441Y-105929795D01*
X105002303Y-106065312D01*
X105002594Y-106072590D01*
X105015843Y-106412769D01*
X104021576Y-106412769D01*
X104021576Y-106199324D01*
X104208341Y-106199324D01*
X104395105Y-106199324D01*
X104395105Y-106000793D01*
X104394509Y-105984124D01*
X104585602Y-105984124D01*
X104587318Y-106050862D01*
X104594385Y-106131103D01*
X104609015Y-106172542D01*
X104639660Y-106189732D01*
X104670836Y-106194643D01*
X104752960Y-106196682D01*
X104799084Y-106172679D01*
X104818789Y-106112947D01*
X104821996Y-106041814D01*
X104816713Y-105948121D01*
X104803380Y-105865843D01*
X104795976Y-105840871D01*
X104756309Y-105785735D01*
X104701933Y-105772433D01*
X104638513Y-105796088D01*
X104599681Y-105866786D01*
X104585602Y-105984124D01*
X104394509Y-105984124D01*
X104391538Y-105900998D01*
X104382065Y-105824741D01*
X104368531Y-105786153D01*
X104366908Y-105784836D01*
X104321309Y-105777372D01*
X104273526Y-105783770D01*
X104240232Y-105795530D01*
X104220758Y-105818154D01*
X104211417Y-105863855D01*
X104208522Y-105944844D01*
X104208341Y-105999727D01*
X104208341Y-106199324D01*
X104021576Y-106199324D01*
X104021576Y-106056178D01*
G37*
G36*
X103701408Y-105743594D02*
G01*
X103481292Y-105751343D01*
X103373357Y-105755844D01*
X103307628Y-105762598D01*
X103272976Y-105775504D01*
X103258270Y-105798460D01*
X103252841Y-105831358D01*
X103244506Y-105903624D01*
X103466287Y-105911400D01*
X103688068Y-105919177D01*
X103688068Y-106079261D01*
X103467952Y-106087010D01*
X103247837Y-106094759D01*
X103247837Y-106252685D01*
X103701408Y-106252685D01*
X103701408Y-106412769D01*
X103114433Y-106412769D01*
X103114433Y-106052580D01*
X103115514Y-105884708D01*
X103122402Y-105762833D01*
X103140567Y-105679591D01*
X103175481Y-105627618D01*
X103232612Y-105599552D01*
X103317430Y-105588028D01*
X103435407Y-105585684D01*
X103461282Y-105585668D01*
X103701408Y-105585668D01*
X103701408Y-105743594D01*
G37*
G36*
X104828014Y-106742342D02*
G01*
X104894375Y-106778113D01*
X104944727Y-106823651D01*
X105016004Y-106926669D01*
X105038565Y-107036350D01*
X105014022Y-107142147D01*
X104943983Y-107233513D01*
X104875063Y-107280043D01*
X104802700Y-107308635D01*
X104741954Y-107319912D01*
X104645603Y-107297281D01*
X104553462Y-107238971D01*
X104488254Y-107159376D01*
X104465491Y-107119800D01*
X104439064Y-107096153D01*
X104395892Y-107084336D01*
X104322894Y-107080247D01*
X104234336Y-107079786D01*
X104021576Y-107079786D01*
X104021576Y-108200374D01*
X104235682Y-108200374D01*
X104342754Y-108199267D01*
X104408625Y-108193796D01*
X104445446Y-108180736D01*
X104465365Y-108156864D01*
X104473815Y-108137176D01*
X104531619Y-108051761D01*
X104621084Y-107991740D01*
X104726448Y-107961701D01*
X104831952Y-107966237D01*
X104918926Y-108007532D01*
X104996959Y-108098860D01*
X105030962Y-108201520D01*
X105025586Y-108305419D01*
X104985478Y-108400466D01*
X104915289Y-108476569D01*
X104819669Y-108523635D01*
X104703266Y-108531572D01*
X104679221Y-108527831D01*
X104613629Y-108500058D01*
X104546477Y-108449556D01*
X104494693Y-108391614D01*
X104475147Y-108343479D01*
X104462095Y-108324862D01*
X104417546Y-108313486D01*
X104333416Y-108308056D01*
X104248362Y-108307097D01*
X104021576Y-108307097D01*
X104021576Y-109401004D01*
X104248362Y-109401004D01*
X104364413Y-109398910D01*
X104435320Y-109391763D01*
X104469170Y-109378267D01*
X104475147Y-109364622D01*
X104497127Y-109312148D01*
X104552093Y-109253873D01*
X104623590Y-109204063D01*
X104690631Y-109177813D01*
X104801734Y-109179406D01*
X104899668Y-109223105D01*
X104976538Y-109298257D01*
X105024443Y-109394210D01*
X105035487Y-109500311D01*
X105004474Y-109601109D01*
X104928166Y-109690141D01*
X104826989Y-109739738D01*
X104714432Y-109747555D01*
X104603987Y-109711251D01*
X104557237Y-109678780D01*
X104504883Y-109626229D01*
X104476708Y-109581401D01*
X104475147Y-109572960D01*
X104462947Y-109555607D01*
X104421365Y-109543356D01*
X104342934Y-109535053D01*
X104220185Y-109529544D01*
X104188330Y-109528640D01*
X103901513Y-109521067D01*
X103893969Y-109220910D01*
X103886425Y-108920752D01*
X103660513Y-108920752D01*
X103545834Y-108922705D01*
X103475781Y-108929521D01*
X103441725Y-108942638D01*
X103434601Y-108958401D01*
X103415596Y-108998416D01*
X103368369Y-109051072D01*
X103352512Y-109065124D01*
X103246084Y-109124520D01*
X103131775Y-109138093D01*
X103023045Y-109106304D01*
X102951713Y-109051334D01*
X102896188Y-108975368D01*
X102875555Y-108891623D01*
X102874307Y-108854050D01*
X102896016Y-108740207D01*
X102953910Y-108653497D01*
X103037140Y-108595851D01*
X103134858Y-108569199D01*
X103236214Y-108575469D01*
X103330360Y-108616592D01*
X103406447Y-108694499D01*
X103436772Y-108753998D01*
X103452662Y-108783971D01*
X103479787Y-108801892D01*
X103530231Y-108810818D01*
X103616075Y-108813807D01*
X103674067Y-108814029D01*
X103888173Y-108814029D01*
X103888173Y-107693441D01*
X103661387Y-107693441D01*
X103548622Y-107695047D01*
X103479607Y-107701023D01*
X103444794Y-107713108D01*
X103434636Y-107733040D01*
X103434601Y-107734736D01*
X103416267Y-107779524D01*
X103371447Y-107834365D01*
X103364650Y-107840859D01*
X103263128Y-107906047D01*
X103158704Y-107925562D01*
X103059626Y-107905916D01*
X102974144Y-107853620D01*
X102910508Y-107775184D01*
X102876967Y-107677120D01*
X102881770Y-107565938D01*
X102912327Y-107483865D01*
X102980257Y-107403865D01*
X103073627Y-107359434D01*
X103179031Y-107349557D01*
X103283064Y-107373219D01*
X103372318Y-107429404D01*
X103433389Y-107517097D01*
X103435933Y-107523521D01*
X103451653Y-107555001D01*
X103477348Y-107573830D01*
X103525166Y-107583233D01*
X103607257Y-107586434D01*
X103674067Y-107586719D01*
X103888173Y-107586719D01*
X103888173Y-106973063D01*
X104168980Y-106973063D01*
X104294290Y-106972475D01*
X104376577Y-106969284D01*
X104426180Y-106961345D01*
X104453434Y-106946516D01*
X104468677Y-106922653D01*
X104473815Y-106909865D01*
X104534387Y-106820176D01*
X104629364Y-106757725D01*
X104742492Y-106732995D01*
X104748220Y-106732937D01*
X104828014Y-106742342D01*
G37*
G36*
X103236673Y-104009948D02*
G01*
X103159178Y-103932050D01*
X103113162Y-103832166D01*
X103103160Y-103740304D01*
X103247837Y-103740304D01*
X103264736Y-103821750D01*
X103318190Y-103866340D01*
X103398011Y-103878105D01*
X103488623Y-103860185D01*
X103546206Y-103813562D01*
X103564581Y-103748939D01*
X103537569Y-103677023D01*
X103523848Y-103660090D01*
X103457241Y-103617665D01*
X103380384Y-103611263D01*
X103309405Y-103636198D01*
X103260430Y-103687782D01*
X103247837Y-103740304D01*
X103103160Y-103740304D01*
X103101224Y-103722523D01*
X103125962Y-103615348D01*
X103189974Y-103522867D01*
X103224274Y-103494722D01*
X103305176Y-103462432D01*
X103407914Y-103452445D01*
X103508956Y-103464517D01*
X103584770Y-103498400D01*
X103584892Y-103498499D01*
X103662491Y-103593378D01*
X103699469Y-103710803D01*
X103692689Y-103835340D01*
X103667453Y-103904786D01*
X103606448Y-103975821D01*
X103513482Y-104029366D01*
X103409360Y-104055875D01*
X103398011Y-104055491D01*
X103343049Y-104053633D01*
X103236673Y-104009948D01*
G37*
G36*
X104833046Y-103491056D02*
G01*
X104920027Y-103547821D01*
X104942702Y-103576003D01*
X104963565Y-103620012D01*
X104979035Y-103684953D01*
X104990409Y-103780041D01*
X104998985Y-103914494D01*
X105002755Y-104002649D01*
X105016328Y-104358357D01*
X104795316Y-104358357D01*
X104795316Y-104039764D01*
X104792974Y-103895874D01*
X104786321Y-103787474D01*
X104775916Y-103721229D01*
X104767118Y-103703744D01*
X104721119Y-103696015D01*
X104676931Y-103701875D01*
X104647956Y-103712540D01*
X104629046Y-103734050D01*
X104617322Y-103777006D01*
X104609903Y-103852010D01*
X104603910Y-103969664D01*
X104603857Y-103970870D01*
X104595729Y-104101665D01*
X104583230Y-104191893D01*
X104563805Y-104254318D01*
X104538630Y-104296824D01*
X104453563Y-104368510D01*
X104341343Y-104399129D01*
X104211887Y-104385991D01*
X104210746Y-104385686D01*
X104141821Y-104361957D01*
X104091786Y-104328121D01*
X104057703Y-104276100D01*
X104036634Y-104197817D01*
X104025641Y-104085195D01*
X104021784Y-103930156D01*
X104021576Y-103865703D01*
X104021576Y-103504576D01*
X104208341Y-103504576D01*
X104208341Y-103806067D01*
X104210487Y-103954374D01*
X104218501Y-104057217D01*
X104234750Y-104122378D01*
X104261599Y-104157637D01*
X104301414Y-104170778D01*
X104319461Y-104171592D01*
X104365534Y-104155613D01*
X104396801Y-104104095D01*
X104414948Y-104011670D01*
X104421661Y-103872970D01*
X104421786Y-103845775D01*
X104427004Y-103704688D01*
X104445849Y-103606487D01*
X104483107Y-103541435D01*
X104543564Y-103499792D01*
X104601826Y-103479473D01*
X104721615Y-103466754D01*
X104833046Y-103491056D01*
G37*
G36*
X103701408Y-105452265D02*
G01*
X103114433Y-105452265D01*
X103114433Y-105292181D01*
X103701408Y-105292181D01*
X103701408Y-105452265D01*
G37*
G36*
X102984362Y-105298792D02*
G01*
X103005258Y-105329977D01*
X103007710Y-105372223D01*
X103001099Y-105428916D01*
X102969914Y-105449813D01*
X102927668Y-105452265D01*
X102870975Y-105445654D01*
X102850079Y-105414469D01*
X102847626Y-105372223D01*
X102854238Y-105315529D01*
X102885423Y-105294633D01*
X102927668Y-105292181D01*
X102984362Y-105298792D01*
G37*
G36*
X104401776Y-104523489D02*
G01*
X104571564Y-104530243D01*
X104696989Y-104540051D01*
X104787045Y-104555339D01*
X104850727Y-104578529D01*
X104897028Y-104612047D01*
X104934943Y-104658317D01*
X104942204Y-104669151D01*
X104968814Y-104736968D01*
X104988970Y-104838260D01*
X105000665Y-104953325D01*
X105001888Y-105062462D01*
X104990780Y-105145437D01*
X104936985Y-105253377D01*
X104850301Y-105335861D01*
X104774155Y-105371137D01*
X104708392Y-105381995D01*
X104604031Y-105390854D01*
X104475825Y-105396757D01*
X104348414Y-105398755D01*
X104021576Y-105398903D01*
X104021576Y-105158777D01*
X104366243Y-105158777D01*
X104499487Y-105157608D01*
X104615485Y-105154413D01*
X104702666Y-105149664D01*
X104749458Y-105143833D01*
X104751822Y-105143078D01*
X104796579Y-105100780D01*
X104825595Y-105026466D01*
X104833595Y-104940444D01*
X104821128Y-104876346D01*
X104790465Y-104815063D01*
X104760296Y-104779529D01*
X104722969Y-104772002D01*
X104643303Y-104765690D01*
X104532318Y-104761179D01*
X104401032Y-104759059D01*
X104375095Y-104758976D01*
X104021576Y-104758567D01*
X104021576Y-104511720D01*
X104401776Y-104523489D01*
G37*
G36*
X103254507Y-104697495D02*
G01*
X103394580Y-104834705D01*
X103523895Y-104716594D01*
X103593558Y-104656094D01*
X103649141Y-104613502D01*
X103677309Y-104598483D01*
X103693363Y-104621914D01*
X103701243Y-104679385D01*
X103701408Y-104690079D01*
X103694313Y-104749273D01*
X103666241Y-104800068D01*
X103607010Y-104858268D01*
X103576787Y-104883514D01*
X103452166Y-104985353D01*
X103570117Y-104998693D01*
X103644434Y-105010923D01*
X103680902Y-105032440D01*
X103695016Y-105073874D01*
X103696510Y-105085406D01*
X103704952Y-105158777D01*
X102847626Y-105158777D01*
X102847626Y-104998693D01*
X103353367Y-104998693D01*
X103233900Y-104888573D01*
X103165302Y-104820471D01*
X103129226Y-104766582D01*
X103115774Y-104708744D01*
X103114433Y-104669368D01*
X103114433Y-104560285D01*
X103254507Y-104697495D01*
G37*
G36*
X103348227Y-104105941D02*
G01*
X103354467Y-104150402D01*
X103354559Y-104168102D01*
X103346521Y-104228790D01*
X103317226Y-104250699D01*
X103304052Y-104251634D01*
X103253374Y-104274530D01*
X103223246Y-104328088D01*
X103221156Y-104347199D01*
X103245851Y-104352113D01*
X103311998Y-104355923D01*
X103407693Y-104358075D01*
X103461282Y-104358357D01*
X103701408Y-104358357D01*
X103701408Y-104518441D01*
X103114433Y-104518441D01*
X103114842Y-104351687D01*
X103118610Y-104239339D01*
X103133549Y-104168708D01*
X103166113Y-104128355D01*
X103222760Y-104106846D01*
X103256666Y-104100454D01*
X103320846Y-104092899D01*
X103348227Y-104105941D01*
G37*
%TO.C,C21*%
X139372164Y-109640000D02*
X139587836Y-109640000D01*
X139372164Y-110360000D02*
X139587836Y-110360000D01*
%TO.C,C35*%
X106012164Y-109140000D02*
X106227836Y-109140000D01*
X106012164Y-109860000D02*
X106227836Y-109860000D01*
D18*
%TO.C,RX1*%
X125350000Y-120095000D02*
G75*
G03*
X125350000Y-120095000I-50000J0D01*
G01*
D15*
%TO.C,C19*%
X137462164Y-110310000D02*
X137677836Y-110310000D01*
X137462164Y-109590000D02*
X137677836Y-109590000D01*
%TO.C,C29*%
X143312164Y-117640000D02*
X143527836Y-117640000D01*
X143312164Y-118360000D02*
X143527836Y-118360000D01*
D18*
%TO.C,D2*%
X151950000Y-114405000D02*
G75*
G03*
X151950000Y-114405000I-50000J0D01*
G01*
D15*
%TO.C,C24*%
X139860000Y-113887836D02*
X139860000Y-113672164D01*
X139140000Y-113887836D02*
X139140000Y-113672164D01*
%TO.C,C25*%
X140772164Y-112940000D02*
X140987836Y-112940000D01*
X140772164Y-113660000D02*
X140987836Y-113660000D01*
%TO.C,C8*%
X138612164Y-105560000D02*
X138827836Y-105560000D01*
X138612164Y-104840000D02*
X138827836Y-104840000D01*
%TO.C,C30*%
X142360000Y-118372164D02*
X142360000Y-118587836D01*
X141640000Y-118372164D02*
X141640000Y-118587836D01*
%TO.C,R2*%
X112922500Y-110387258D02*
X112922500Y-109912742D01*
X111877500Y-110387258D02*
X111877500Y-109912742D01*
%TO.C,VDD_RADIO1*%
X120630000Y-110205000D02*
X120630000Y-107605000D01*
X117970000Y-110205000D02*
X117970000Y-107605000D01*
X120630000Y-111475000D02*
X120630000Y-112805000D01*
X120630000Y-110205000D02*
X117970000Y-110205000D01*
X120630000Y-107605000D02*
X117970000Y-107605000D01*
X120630000Y-112805000D02*
X119300000Y-112805000D01*
%TO.C,J2*%
X126630000Y-125430000D02*
X126630000Y-122770000D01*
X125360000Y-125430000D02*
X124030000Y-125430000D01*
X141930000Y-125430000D02*
X141930000Y-122770000D01*
X126630000Y-122770000D02*
X141930000Y-122770000D01*
X124030000Y-125430000D02*
X124030000Y-124100000D01*
X126630000Y-125430000D02*
X141930000Y-125430000D01*
%TO.C,LR112x_1*%
X131720000Y-121463641D02*
X131720000Y-121156359D01*
X132480000Y-121463641D02*
X132480000Y-121156359D01*
%TO.C,R10*%
X106077500Y-112512258D02*
X106077500Y-112037742D01*
X107122500Y-112512258D02*
X107122500Y-112037742D01*
%TO.C,U1*%
X135510000Y-111065000D02*
X135510000Y-110590000D01*
X135510000Y-115810000D02*
X135035000Y-115810000D01*
X135510000Y-115335000D02*
X135510000Y-115810000D01*
X130290000Y-115335000D02*
X130290000Y-115810000D01*
X130290000Y-110590000D02*
X130765000Y-110590000D01*
X130290000Y-111065000D02*
X130290000Y-110590000D01*
X130290000Y-115810000D02*
X130765000Y-115810000D01*
D14*
%TO.C,U7*%
X108800000Y-119500000D02*
X108800000Y-119500000D01*
X108600000Y-119500000D02*
X108600000Y-119500000D01*
X108800000Y-119500000D02*
G75*
G03*
X108600000Y-119500000I-100000J0D01*
G01*
X108600000Y-119500000D02*
G75*
G03*
X108800000Y-119500000I100000J0D01*
G01*
D18*
%TO.C,D3*%
X152450000Y-124080000D02*
G75*
G03*
X152450000Y-124080000I-50000J0D01*
G01*
D15*
%TO.C,C17*%
X145390000Y-108372164D02*
X145390000Y-108587836D01*
X146110000Y-108372164D02*
X146110000Y-108587836D01*
%TO.C,C34*%
X123560000Y-110172164D02*
X123560000Y-110387836D01*
X122840000Y-110172164D02*
X122840000Y-110387836D01*
%TO.C,C13*%
X138512164Y-107640000D02*
X138727836Y-107640000D01*
X138512164Y-108360000D02*
X138727836Y-108360000D01*
%TO.C,C48*%
X106360000Y-117307836D02*
X106360000Y-117092164D01*
X105640000Y-117307836D02*
X105640000Y-117092164D01*
%TO.C,LR112x_2*%
X133020000Y-121543641D02*
X133020000Y-121236359D01*
X133780000Y-121543641D02*
X133780000Y-121236359D01*
%TO.C,C31*%
X148127836Y-104640000D02*
X147912164Y-104640000D01*
X148127836Y-105360000D02*
X147912164Y-105360000D01*
D18*
%TO.C,D1*%
X152450000Y-103805000D02*
G75*
G03*
X152450000Y-103805000I-50000J0D01*
G01*
D15*
%TO.C,C32*%
X151140000Y-103037164D02*
X151140000Y-103252836D01*
X151860000Y-103037164D02*
X151860000Y-103252836D01*
%TO.C,C18*%
X138587836Y-112360000D02*
X138372164Y-112360000D01*
X138587836Y-111640000D02*
X138372164Y-111640000D01*
%TO.C,C22*%
X138227836Y-114840000D02*
X138012164Y-114840000D01*
X138227836Y-115560000D02*
X138012164Y-115560000D01*
%TO.C,C38*%
X114510000Y-110215580D02*
X114510000Y-109934420D01*
X113490000Y-110215580D02*
X113490000Y-109934420D01*
%TO.C,ANT_GNSS1*%
X153815000Y-112440000D02*
X153185000Y-112440000D01*
X156535000Y-111850000D02*
X156535000Y-114550000D01*
X153815000Y-114600000D02*
X153815000Y-113960000D01*
X153815000Y-111800000D02*
X153815000Y-112440000D01*
D18*
%TO.C,TX1*%
X127950000Y-120095000D02*
G75*
G03*
X127950000Y-120095000I-50000J0D01*
G01*
%TO.C,Scanning1*%
X141255000Y-103300000D02*
G75*
G03*
X141255000Y-103300000I-50000J0D01*
G01*
D15*
%TO.C,C53*%
X140412164Y-116640000D02*
X140627836Y-116640000D01*
X140412164Y-117360000D02*
X140627836Y-117360000D01*
D18*
%TO.C,U8*%
X147475000Y-112500000D02*
X147475000Y-112500000D01*
X147375000Y-112500000D02*
X147375000Y-112500000D01*
X147375000Y-112500000D02*
G75*
G03*
X147475000Y-112500000I50000J0D01*
G01*
X147475000Y-112500000D02*
G75*
G03*
X147375000Y-112500000I-50000J0D01*
G01*
D15*
%TO.C,C28*%
X139460000Y-118372164D02*
X139460000Y-118587836D01*
X138740000Y-118372164D02*
X138740000Y-118587836D01*
%TO.C,C14*%
X140460000Y-108372164D02*
X140460000Y-108587836D01*
X139740000Y-108372164D02*
X139740000Y-108587836D01*
%TO.C,C15*%
X144212164Y-107640000D02*
X144427836Y-107640000D01*
X144212164Y-108360000D02*
X144427836Y-108360000D01*
%TO.C,C20*%
X140587836Y-110540000D02*
X140372164Y-110540000D01*
X140587836Y-111260000D02*
X140372164Y-111260000D01*
%TO.C,L1*%
X127490000Y-113850279D02*
X127490000Y-113524721D01*
X128510000Y-113850279D02*
X128510000Y-113524721D01*
%TO.C,C12*%
X146160000Y-105827836D02*
X146160000Y-105612164D01*
X145440000Y-105827836D02*
X145440000Y-105612164D01*
%TO.C,ANT_WIFI1*%
X154015000Y-124300000D02*
X154015000Y-123660000D01*
X154015000Y-122140000D02*
X153385000Y-122140000D01*
X154015000Y-121500000D02*
X154015000Y-122140000D01*
X156735000Y-121550000D02*
X156735000Y-124250000D01*
%TD*%
M02*
