%TF.GenerationSoftware,KiCad,Pcbnew,(6.0.8)*%
%TF.CreationDate,2023-04-10T13:30:07+02:00*%
%TF.ProjectId,LR1120_Mikrobus,4c523131-3230-45f4-9d69-6b726f627573,rev?*%
%TF.SameCoordinates,Original*%
%TF.FileFunction,Legend,Bot*%
%TF.FilePolarity,Positive*%
%FSLAX46Y46*%
G04 Gerber Fmt 4.6, Leading zero omitted, Abs format (unit mm)*
G04 Created by KiCad (PCBNEW (6.0.8)) date 2023-04-10 13:30:07*
%MOMM*%
%LPD*%
G01*
G04 APERTURE LIST*
%ADD10C,0.050000*%
%ADD11C,0.127000*%
G04 APERTURE END LIST*
D10*
X128452380Y-103035714D02*
X127452380Y-103035714D01*
X127452380Y-103273809D01*
X127500000Y-103416666D01*
X127595238Y-103511904D01*
X127690476Y-103559523D01*
X127880952Y-103607142D01*
X128023809Y-103607142D01*
X128214285Y-103559523D01*
X128309523Y-103511904D01*
X128404761Y-103416666D01*
X128452380Y-103273809D01*
X128452380Y-103035714D01*
X128452380Y-104035714D02*
X127452380Y-104035714D01*
X128404761Y-104464285D02*
X128452380Y-104607142D01*
X128452380Y-104845238D01*
X128404761Y-104940476D01*
X128357142Y-104988095D01*
X128261904Y-105035714D01*
X128166666Y-105035714D01*
X128071428Y-104988095D01*
X128023809Y-104940476D01*
X127976190Y-104845238D01*
X127928571Y-104654761D01*
X127880952Y-104559523D01*
X127833333Y-104511904D01*
X127738095Y-104464285D01*
X127642857Y-104464285D01*
X127547619Y-104511904D01*
X127500000Y-104559523D01*
X127452380Y-104654761D01*
X127452380Y-104892857D01*
X127500000Y-105035714D01*
X128452380Y-105464285D02*
X127452380Y-105464285D01*
X127452380Y-105845238D01*
X127500000Y-105940476D01*
X127547619Y-105988095D01*
X127642857Y-106035714D01*
X127785714Y-106035714D01*
X127880952Y-105988095D01*
X127928571Y-105940476D01*
X127976190Y-105845238D01*
X127976190Y-105464285D01*
X128547619Y-106226190D02*
X128547619Y-106988095D01*
X128452380Y-107797619D02*
X127976190Y-107464285D01*
X128452380Y-107226190D02*
X127452380Y-107226190D01*
X127452380Y-107607142D01*
X127500000Y-107702380D01*
X127547619Y-107750000D01*
X127642857Y-107797619D01*
X127785714Y-107797619D01*
X127880952Y-107750000D01*
X127928571Y-107702380D01*
X127976190Y-107607142D01*
X127976190Y-107226190D01*
X128404761Y-108178571D02*
X128452380Y-108321428D01*
X128452380Y-108559523D01*
X128404761Y-108654761D01*
X128357142Y-108702380D01*
X128261904Y-108750000D01*
X128166666Y-108750000D01*
X128071428Y-108702380D01*
X128023809Y-108654761D01*
X127976190Y-108559523D01*
X127928571Y-108369047D01*
X127880952Y-108273809D01*
X127833333Y-108226190D01*
X127738095Y-108178571D01*
X127642857Y-108178571D01*
X127547619Y-108226190D01*
X127500000Y-108273809D01*
X127452380Y-108369047D01*
X127452380Y-108607142D01*
X127500000Y-108750000D01*
X127452380Y-109035714D02*
X127452380Y-109607142D01*
X128452380Y-109321428D02*
X127452380Y-109321428D01*
X137702380Y-103000000D02*
X137702380Y-103571428D01*
X138702380Y-103285714D02*
X137702380Y-103285714D01*
X138178571Y-104238095D02*
X138178571Y-103904761D01*
X138702380Y-103904761D02*
X137702380Y-103904761D01*
X137702380Y-104380952D01*
X137702380Y-104619047D02*
X137702380Y-105190476D01*
X138702380Y-104904761D02*
X137702380Y-104904761D01*
X138797619Y-105285714D02*
X138797619Y-106047619D01*
X138702380Y-106285714D02*
X137702380Y-106285714D01*
X137702380Y-106523809D01*
X137750000Y-106666666D01*
X137845238Y-106761904D01*
X137940476Y-106809523D01*
X138130952Y-106857142D01*
X138273809Y-106857142D01*
X138464285Y-106809523D01*
X138559523Y-106761904D01*
X138654761Y-106666666D01*
X138702380Y-106523809D01*
X138702380Y-106285714D01*
X137654761Y-108000000D02*
X138940476Y-107142857D01*
X138607142Y-108904761D02*
X138654761Y-108857142D01*
X138702380Y-108714285D01*
X138702380Y-108619047D01*
X138654761Y-108476190D01*
X138559523Y-108380952D01*
X138464285Y-108333333D01*
X138273809Y-108285714D01*
X138130952Y-108285714D01*
X137940476Y-108333333D01*
X137845238Y-108380952D01*
X137750000Y-108476190D01*
X137702380Y-108619047D01*
X137702380Y-108714285D01*
X137750000Y-108857142D01*
X137797619Y-108904761D01*
X140678571Y-119142857D02*
X140726190Y-119285714D01*
X140773809Y-119333333D01*
X140869047Y-119380952D01*
X141011904Y-119380952D01*
X141107142Y-119333333D01*
X141154761Y-119285714D01*
X141202380Y-119190476D01*
X141202380Y-118809523D01*
X140202380Y-118809523D01*
X140202380Y-119142857D01*
X140250000Y-119238095D01*
X140297619Y-119285714D01*
X140392857Y-119333333D01*
X140488095Y-119333333D01*
X140583333Y-119285714D01*
X140630952Y-119238095D01*
X140678571Y-119142857D01*
X140678571Y-118809523D01*
X140202380Y-119809523D02*
X141011904Y-119809523D01*
X141107142Y-119857142D01*
X141154761Y-119904761D01*
X141202380Y-120000000D01*
X141202380Y-120190476D01*
X141154761Y-120285714D01*
X141107142Y-120333333D01*
X141011904Y-120380952D01*
X140202380Y-120380952D01*
X141154761Y-120809523D02*
X141202380Y-120952380D01*
X141202380Y-121190476D01*
X141154761Y-121285714D01*
X141107142Y-121333333D01*
X141011904Y-121380952D01*
X140916666Y-121380952D01*
X140821428Y-121333333D01*
X140773809Y-121285714D01*
X140726190Y-121190476D01*
X140678571Y-121000000D01*
X140630952Y-120904761D01*
X140583333Y-120857142D01*
X140488095Y-120809523D01*
X140392857Y-120809523D01*
X140297619Y-120857142D01*
X140250000Y-120904761D01*
X140202380Y-121000000D01*
X140202380Y-121238095D01*
X140250000Y-121380952D01*
X140726190Y-122000000D02*
X141202380Y-122000000D01*
X140202380Y-121666666D02*
X140726190Y-122000000D01*
X140202380Y-122333333D01*
X130952380Y-112214285D02*
X130952380Y-111738095D01*
X129952380Y-111738095D01*
X130952380Y-112547619D02*
X129952380Y-112547619D01*
X130952380Y-113119047D01*
X129952380Y-113119047D01*
X130666666Y-113547619D02*
X130666666Y-114023809D01*
X130952380Y-113452380D02*
X129952380Y-113785714D01*
X130952380Y-114119047D01*
X131047619Y-114214285D02*
X131047619Y-114976190D01*
X130857142Y-115785714D02*
X130904761Y-115738095D01*
X130952380Y-115595238D01*
X130952380Y-115500000D01*
X130904761Y-115357142D01*
X130809523Y-115261904D01*
X130714285Y-115214285D01*
X130523809Y-115166666D01*
X130380952Y-115166666D01*
X130190476Y-115214285D01*
X130095238Y-115261904D01*
X130000000Y-115357142D01*
X129952380Y-115500000D01*
X129952380Y-115595238D01*
X130000000Y-115738095D01*
X130047619Y-115785714D01*
X129952380Y-116071428D02*
X129952380Y-116642857D01*
X130952380Y-116357142D02*
X129952380Y-116357142D01*
X130952380Y-117547619D02*
X130476190Y-117214285D01*
X130952380Y-116976190D02*
X129952380Y-116976190D01*
X129952380Y-117357142D01*
X130000000Y-117452380D01*
X130047619Y-117500000D01*
X130142857Y-117547619D01*
X130285714Y-117547619D01*
X130380952Y-117500000D01*
X130428571Y-117452380D01*
X130476190Y-117357142D01*
X130476190Y-116976190D01*
X130952380Y-118452380D02*
X130952380Y-117976190D01*
X129952380Y-117976190D01*
X131047619Y-118547619D02*
X131047619Y-119309523D01*
X130952380Y-119547619D02*
X129952380Y-119547619D01*
X130666666Y-119880952D01*
X129952380Y-120214285D01*
X130952380Y-120214285D01*
X130857142Y-121261904D02*
X130904761Y-121214285D01*
X130952380Y-121071428D01*
X130952380Y-120976190D01*
X130904761Y-120833333D01*
X130809523Y-120738095D01*
X130714285Y-120690476D01*
X130523809Y-120642857D01*
X130380952Y-120642857D01*
X130190476Y-120690476D01*
X130095238Y-120738095D01*
X130000000Y-120833333D01*
X129952380Y-120976190D01*
X129952380Y-121071428D01*
X130000000Y-121214285D01*
X130047619Y-121261904D01*
X129952380Y-121690476D02*
X130761904Y-121690476D01*
X130857142Y-121738095D01*
X130904761Y-121785714D01*
X130952380Y-121880952D01*
X130952380Y-122071428D01*
X130904761Y-122166666D01*
X130857142Y-122214285D01*
X130761904Y-122261904D01*
X129952380Y-122261904D01*
X125952380Y-117500000D02*
X125952380Y-117023809D01*
X124952380Y-117023809D01*
X125428571Y-117833333D02*
X125428571Y-118166666D01*
X125952380Y-118309523D02*
X125952380Y-117833333D01*
X124952380Y-117833333D01*
X124952380Y-118309523D01*
X125952380Y-118738095D02*
X124952380Y-118738095D01*
X124952380Y-118976190D01*
X125000000Y-119119047D01*
X125095238Y-119214285D01*
X125190476Y-119261904D01*
X125380952Y-119309523D01*
X125523809Y-119309523D01*
X125714285Y-119261904D01*
X125809523Y-119214285D01*
X125904761Y-119119047D01*
X125952380Y-118976190D01*
X125952380Y-118738095D01*
X126047619Y-119500000D02*
X126047619Y-120261904D01*
X125952380Y-121071428D02*
X125476190Y-120738095D01*
X125952380Y-120500000D02*
X124952380Y-120500000D01*
X124952380Y-120880952D01*
X125000000Y-120976190D01*
X125047619Y-121023809D01*
X125142857Y-121071428D01*
X125285714Y-121071428D01*
X125380952Y-121023809D01*
X125428571Y-120976190D01*
X125476190Y-120880952D01*
X125476190Y-120500000D01*
X124952380Y-121404761D02*
X125952380Y-122071428D01*
X124952380Y-122071428D02*
X125952380Y-121404761D01*
X134952380Y-116226190D02*
X134952380Y-116845238D01*
X135333333Y-116511904D01*
X135333333Y-116654761D01*
X135380952Y-116750000D01*
X135428571Y-116797619D01*
X135523809Y-116845238D01*
X135761904Y-116845238D01*
X135857142Y-116797619D01*
X135904761Y-116750000D01*
X135952380Y-116654761D01*
X135952380Y-116369047D01*
X135904761Y-116273809D01*
X135857142Y-116226190D01*
X135047619Y-117226190D02*
X135000000Y-117273809D01*
X134952380Y-117369047D01*
X134952380Y-117607142D01*
X135000000Y-117702380D01*
X135047619Y-117750000D01*
X135142857Y-117797619D01*
X135238095Y-117797619D01*
X135380952Y-117750000D01*
X135952380Y-117178571D01*
X135952380Y-117797619D01*
X135952380Y-118226190D02*
X134952380Y-118226190D01*
X135571428Y-118321428D02*
X135952380Y-118607142D01*
X135285714Y-118607142D02*
X135666666Y-118226190D01*
X136047619Y-118797619D02*
X136047619Y-119559523D01*
X134952380Y-119988095D02*
X134952380Y-120178571D01*
X135000000Y-120273809D01*
X135095238Y-120369047D01*
X135285714Y-120416666D01*
X135619047Y-120416666D01*
X135809523Y-120369047D01*
X135904761Y-120273809D01*
X135952380Y-120178571D01*
X135952380Y-119988095D01*
X135904761Y-119892857D01*
X135809523Y-119797619D01*
X135619047Y-119750000D01*
X135285714Y-119750000D01*
X135095238Y-119797619D01*
X135000000Y-119892857D01*
X134952380Y-119988095D01*
X134952380Y-120845238D02*
X135761904Y-120845238D01*
X135857142Y-120892857D01*
X135904761Y-120940476D01*
X135952380Y-121035714D01*
X135952380Y-121226190D01*
X135904761Y-121321428D01*
X135857142Y-121369047D01*
X135761904Y-121416666D01*
X134952380Y-121416666D01*
X134952380Y-121750000D02*
X134952380Y-122321428D01*
X135952380Y-122035714D02*
X134952380Y-122035714D01*
X130904761Y-103083333D02*
X130952380Y-103226190D01*
X130952380Y-103464285D01*
X130904761Y-103559523D01*
X130857142Y-103607142D01*
X130761904Y-103654761D01*
X130666666Y-103654761D01*
X130571428Y-103607142D01*
X130523809Y-103559523D01*
X130476190Y-103464285D01*
X130428571Y-103273809D01*
X130380952Y-103178571D01*
X130333333Y-103130952D01*
X130238095Y-103083333D01*
X130142857Y-103083333D01*
X130047619Y-103130952D01*
X130000000Y-103178571D01*
X129952380Y-103273809D01*
X129952380Y-103511904D01*
X130000000Y-103654761D01*
X130952380Y-104083333D02*
X129952380Y-104083333D01*
X130952380Y-104654761D01*
X129952380Y-104654761D01*
X130952380Y-105130952D02*
X129952380Y-105130952D01*
X130428571Y-105940476D02*
X130428571Y-105607142D01*
X130952380Y-105607142D02*
X129952380Y-105607142D01*
X129952380Y-106083333D01*
X130428571Y-106797619D02*
X130428571Y-106464285D01*
X130952380Y-106464285D02*
X129952380Y-106464285D01*
X129952380Y-106940476D01*
X130952380Y-107321428D02*
X129952380Y-107321428D01*
X130952380Y-107797619D02*
X129952380Y-107797619D01*
X130952380Y-108369047D01*
X129952380Y-108369047D01*
X130000000Y-109369047D02*
X129952380Y-109273809D01*
X129952380Y-109130952D01*
X130000000Y-108988095D01*
X130095238Y-108892857D01*
X130190476Y-108845238D01*
X130380952Y-108797619D01*
X130523809Y-108797619D01*
X130714285Y-108845238D01*
X130809523Y-108892857D01*
X130904761Y-108988095D01*
X130952380Y-109130952D01*
X130952380Y-109226190D01*
X130904761Y-109369047D01*
X130857142Y-109416666D01*
X130523809Y-109416666D01*
X130523809Y-109226190D01*
X135202380Y-103071428D02*
X135202380Y-103642857D01*
X136202380Y-103357142D02*
X135202380Y-103357142D01*
X136297619Y-103738095D02*
X136297619Y-104500000D01*
X136202380Y-104738095D02*
X135202380Y-104738095D01*
X136202380Y-105785714D02*
X135726190Y-105452380D01*
X136202380Y-105214285D02*
X135202380Y-105214285D01*
X135202380Y-105595238D01*
X135250000Y-105690476D01*
X135297619Y-105738095D01*
X135392857Y-105785714D01*
X135535714Y-105785714D01*
X135630952Y-105738095D01*
X135678571Y-105690476D01*
X135726190Y-105595238D01*
X135726190Y-105214285D01*
X136297619Y-106880952D02*
X136250000Y-106785714D01*
X136154761Y-106690476D01*
X136011904Y-106547619D01*
X135964285Y-106452380D01*
X135964285Y-106357142D01*
X136202380Y-106404761D02*
X136154761Y-106309523D01*
X136059523Y-106214285D01*
X135869047Y-106166666D01*
X135535714Y-106166666D01*
X135345238Y-106214285D01*
X135250000Y-106309523D01*
X135202380Y-106404761D01*
X135202380Y-106595238D01*
X135250000Y-106690476D01*
X135345238Y-106785714D01*
X135535714Y-106833333D01*
X135869047Y-106833333D01*
X136059523Y-106785714D01*
X136154761Y-106690476D01*
X136202380Y-106595238D01*
X136202380Y-106404761D01*
X133452380Y-117726190D02*
X133452380Y-117250000D01*
X132452380Y-117250000D01*
X133452380Y-118630952D02*
X132976190Y-118297619D01*
X133452380Y-118059523D02*
X132452380Y-118059523D01*
X132452380Y-118440476D01*
X132500000Y-118535714D01*
X132547619Y-118583333D01*
X132642857Y-118630952D01*
X132785714Y-118630952D01*
X132880952Y-118583333D01*
X132928571Y-118535714D01*
X132976190Y-118440476D01*
X132976190Y-118059523D01*
X133452380Y-119583333D02*
X133452380Y-119011904D01*
X133452380Y-119297619D02*
X132452380Y-119297619D01*
X132595238Y-119202380D01*
X132690476Y-119107142D01*
X132738095Y-119011904D01*
X133452380Y-120535714D02*
X133452380Y-119964285D01*
X133452380Y-120250000D02*
X132452380Y-120250000D01*
X132595238Y-120154761D01*
X132690476Y-120059523D01*
X132738095Y-119964285D01*
X132547619Y-120916666D02*
X132500000Y-120964285D01*
X132452380Y-121059523D01*
X132452380Y-121297619D01*
X132500000Y-121392857D01*
X132547619Y-121440476D01*
X132642857Y-121488095D01*
X132738095Y-121488095D01*
X132880952Y-121440476D01*
X133452380Y-120869047D01*
X133452380Y-121488095D01*
X133452380Y-121821428D02*
X132785714Y-122345238D01*
X132785714Y-121821428D02*
X133452380Y-122345238D01*
X138166666Y-116488095D02*
X138166666Y-116964285D01*
X138452380Y-116392857D02*
X137452380Y-116726190D01*
X138452380Y-117059523D01*
X138357142Y-117964285D02*
X138404761Y-117916666D01*
X138452380Y-117773809D01*
X138452380Y-117678571D01*
X138404761Y-117535714D01*
X138309523Y-117440476D01*
X138214285Y-117392857D01*
X138023809Y-117345238D01*
X137880952Y-117345238D01*
X137690476Y-117392857D01*
X137595238Y-117440476D01*
X137500000Y-117535714D01*
X137452380Y-117678571D01*
X137452380Y-117773809D01*
X137500000Y-117916666D01*
X137547619Y-117964285D01*
X138357142Y-118964285D02*
X138404761Y-118916666D01*
X138452380Y-118773809D01*
X138452380Y-118678571D01*
X138404761Y-118535714D01*
X138309523Y-118440476D01*
X138214285Y-118392857D01*
X138023809Y-118345238D01*
X137880952Y-118345238D01*
X137690476Y-118392857D01*
X137595238Y-118440476D01*
X137500000Y-118535714D01*
X137452380Y-118678571D01*
X137452380Y-118773809D01*
X137500000Y-118916666D01*
X137547619Y-118964285D01*
X138547619Y-119154761D02*
X138547619Y-119916666D01*
X138452380Y-120154761D02*
X137452380Y-120154761D01*
X138452380Y-120630952D02*
X137452380Y-120630952D01*
X138452380Y-121202380D01*
X137452380Y-121202380D01*
X137452380Y-121535714D02*
X137452380Y-122107142D01*
X138452380Y-121821428D02*
X137452380Y-121821428D01*
X132928571Y-103535714D02*
X132928571Y-103202380D01*
X133452380Y-103202380D02*
X132452380Y-103202380D01*
X132452380Y-103678571D01*
X133547619Y-103821428D02*
X133547619Y-104583333D01*
X133357142Y-105392857D02*
X133404761Y-105345238D01*
X133452380Y-105202380D01*
X133452380Y-105107142D01*
X133404761Y-104964285D01*
X133309523Y-104869047D01*
X133214285Y-104821428D01*
X133023809Y-104773809D01*
X132880952Y-104773809D01*
X132690476Y-104821428D01*
X132595238Y-104869047D01*
X132500000Y-104964285D01*
X132452380Y-105107142D01*
X132452380Y-105202380D01*
X132500000Y-105345238D01*
X132547619Y-105392857D01*
X133404761Y-105773809D02*
X133452380Y-105916666D01*
X133452380Y-106154761D01*
X133404761Y-106250000D01*
X133357142Y-106297619D01*
X133261904Y-106345238D01*
X133166666Y-106345238D01*
X133071428Y-106297619D01*
X133023809Y-106250000D01*
X132976190Y-106154761D01*
X132928571Y-105964285D01*
X132880952Y-105869047D01*
X132833333Y-105821428D01*
X132738095Y-105773809D01*
X132642857Y-105773809D01*
X132547619Y-105821428D01*
X132500000Y-105869047D01*
X132452380Y-105964285D01*
X132452380Y-106202380D01*
X132500000Y-106345238D01*
X128452380Y-118119047D02*
X128452380Y-117642857D01*
X127452380Y-117642857D01*
X127928571Y-118452380D02*
X127928571Y-118785714D01*
X128452380Y-118928571D02*
X128452380Y-118452380D01*
X127452380Y-118452380D01*
X127452380Y-118928571D01*
X128452380Y-119357142D02*
X127452380Y-119357142D01*
X127452380Y-119595238D01*
X127500000Y-119738095D01*
X127595238Y-119833333D01*
X127690476Y-119880952D01*
X127880952Y-119928571D01*
X128023809Y-119928571D01*
X128214285Y-119880952D01*
X128309523Y-119833333D01*
X128404761Y-119738095D01*
X128452380Y-119595238D01*
X128452380Y-119357142D01*
X128547619Y-120119047D02*
X128547619Y-120880952D01*
X127452380Y-120976190D02*
X127452380Y-121547619D01*
X128452380Y-121261904D02*
X127452380Y-121261904D01*
X127452380Y-121785714D02*
X128452380Y-122452380D01*
X127452380Y-122452380D02*
X128452380Y-121785714D01*
X125702380Y-103000000D02*
X124702380Y-103000000D01*
X124702380Y-103238095D01*
X124750000Y-103380952D01*
X124845238Y-103476190D01*
X124940476Y-103523809D01*
X125130952Y-103571428D01*
X125273809Y-103571428D01*
X125464285Y-103523809D01*
X125559523Y-103476190D01*
X125654761Y-103380952D01*
X125702380Y-103238095D01*
X125702380Y-103000000D01*
X125702380Y-104000000D02*
X124702380Y-104000000D01*
X124702380Y-104666666D02*
X124702380Y-104857142D01*
X124750000Y-104952380D01*
X124845238Y-105047619D01*
X125035714Y-105095238D01*
X125369047Y-105095238D01*
X125559523Y-105047619D01*
X125654761Y-104952380D01*
X125702380Y-104857142D01*
X125702380Y-104666666D01*
X125654761Y-104571428D01*
X125559523Y-104476190D01*
X125369047Y-104428571D01*
X125035714Y-104428571D01*
X124845238Y-104476190D01*
X124750000Y-104571428D01*
X124702380Y-104666666D01*
X125702380Y-105571428D02*
X125702380Y-105761904D01*
X125654761Y-105857142D01*
X125607142Y-105904761D01*
X125464285Y-106000000D01*
X125273809Y-106047619D01*
X124892857Y-106047619D01*
X124797619Y-106000000D01*
X124750000Y-105952380D01*
X124702380Y-105857142D01*
X124702380Y-105666666D01*
X124750000Y-105571428D01*
X124797619Y-105523809D01*
X124892857Y-105476190D01*
X125130952Y-105476190D01*
X125226190Y-105523809D01*
X125273809Y-105571428D01*
X125321428Y-105666666D01*
X125321428Y-105857142D01*
X125273809Y-105952380D01*
X125226190Y-106000000D01*
X125130952Y-106047619D01*
X140202380Y-103047619D02*
X140202380Y-103619047D01*
X141202380Y-103333333D02*
X140202380Y-103333333D01*
X140678571Y-104285714D02*
X140678571Y-103952380D01*
X141202380Y-103952380D02*
X140202380Y-103952380D01*
X140202380Y-104428571D01*
X140202380Y-104666666D02*
X140202380Y-105238095D01*
X141202380Y-104952380D02*
X140202380Y-104952380D01*
X141297619Y-105333333D02*
X141297619Y-106095238D01*
X141107142Y-106904761D02*
X141154761Y-106857142D01*
X141202380Y-106714285D01*
X141202380Y-106619047D01*
X141154761Y-106476190D01*
X141059523Y-106380952D01*
X140964285Y-106333333D01*
X140773809Y-106285714D01*
X140630952Y-106285714D01*
X140440476Y-106333333D01*
X140345238Y-106380952D01*
X140250000Y-106476190D01*
X140202380Y-106619047D01*
X140202380Y-106714285D01*
X140250000Y-106857142D01*
X140297619Y-106904761D01*
X141154761Y-107285714D02*
X141202380Y-107428571D01*
X141202380Y-107666666D01*
X141154761Y-107761904D01*
X141107142Y-107809523D01*
X141011904Y-107857142D01*
X140916666Y-107857142D01*
X140821428Y-107809523D01*
X140773809Y-107761904D01*
X140726190Y-107666666D01*
X140678571Y-107476190D01*
X140630952Y-107380952D01*
X140583333Y-107333333D01*
X140488095Y-107285714D01*
X140392857Y-107285714D01*
X140297619Y-107333333D01*
X140250000Y-107380952D01*
X140202380Y-107476190D01*
X140202380Y-107714285D01*
X140250000Y-107857142D01*
%TO.C,CON1*%
X121616666Y-103071286D02*
X121616666Y-103547476D01*
X121902380Y-102976048D02*
X120902380Y-103309381D01*
X121902380Y-103642714D01*
X121902380Y-103976048D02*
X120902380Y-103976048D01*
X121902380Y-104547476D01*
X120902380Y-104547476D01*
X119362380Y-103690333D02*
X118886190Y-103357000D01*
X119362380Y-103118905D02*
X118362380Y-103118905D01*
X118362380Y-103499857D01*
X118410000Y-103595095D01*
X118457619Y-103642714D01*
X118552857Y-103690333D01*
X118695714Y-103690333D01*
X118790952Y-103642714D01*
X118838571Y-103595095D01*
X118886190Y-103499857D01*
X118886190Y-103118905D01*
X119314761Y-104071286D02*
X119362380Y-104214143D01*
X119362380Y-104452238D01*
X119314761Y-104547476D01*
X119267142Y-104595095D01*
X119171904Y-104642714D01*
X119076666Y-104642714D01*
X118981428Y-104595095D01*
X118933809Y-104547476D01*
X118886190Y-104452238D01*
X118838571Y-104261762D01*
X118790952Y-104166524D01*
X118743333Y-104118905D01*
X118648095Y-104071286D01*
X118552857Y-104071286D01*
X118457619Y-104118905D01*
X118410000Y-104166524D01*
X118362380Y-104261762D01*
X118362380Y-104499857D01*
X118410000Y-104642714D01*
X118362380Y-104928429D02*
X118362380Y-105499857D01*
X119362380Y-105214143D02*
X118362380Y-105214143D01*
X116752542Y-103690333D02*
X116800161Y-103642714D01*
X116847780Y-103499857D01*
X116847780Y-103404619D01*
X116800161Y-103261761D01*
X116704923Y-103166523D01*
X116609685Y-103118904D01*
X116419209Y-103071285D01*
X116276352Y-103071285D01*
X116085876Y-103118904D01*
X115990638Y-103166523D01*
X115895400Y-103261761D01*
X115847780Y-103404619D01*
X115847780Y-103499857D01*
X115895400Y-103642714D01*
X115943019Y-103690333D01*
X116800161Y-104071285D02*
X116847780Y-104214142D01*
X116847780Y-104452238D01*
X116800161Y-104547476D01*
X116752542Y-104595095D01*
X116657304Y-104642714D01*
X116562066Y-104642714D01*
X116466828Y-104595095D01*
X116419209Y-104547476D01*
X116371590Y-104452238D01*
X116323971Y-104261761D01*
X116276352Y-104166523D01*
X116228733Y-104118904D01*
X116133495Y-104071285D01*
X116038257Y-104071285D01*
X115943019Y-104118904D01*
X115895400Y-104166523D01*
X115847780Y-104261761D01*
X115847780Y-104499857D01*
X115895400Y-104642714D01*
X114234761Y-103071285D02*
X114282380Y-103214142D01*
X114282380Y-103452238D01*
X114234761Y-103547476D01*
X114187142Y-103595095D01*
X114091904Y-103642714D01*
X113996666Y-103642714D01*
X113901428Y-103595095D01*
X113853809Y-103547476D01*
X113806190Y-103452238D01*
X113758571Y-103261761D01*
X113710952Y-103166523D01*
X113663333Y-103118904D01*
X113568095Y-103071285D01*
X113472857Y-103071285D01*
X113377619Y-103118904D01*
X113330000Y-103166523D01*
X113282380Y-103261761D01*
X113282380Y-103499857D01*
X113330000Y-103642714D01*
X114187142Y-104642714D02*
X114234761Y-104595095D01*
X114282380Y-104452238D01*
X114282380Y-104357000D01*
X114234761Y-104214142D01*
X114139523Y-104118904D01*
X114044285Y-104071285D01*
X113853809Y-104023666D01*
X113710952Y-104023666D01*
X113520476Y-104071285D01*
X113425238Y-104118904D01*
X113330000Y-104214142D01*
X113282380Y-104357000D01*
X113282380Y-104452238D01*
X113330000Y-104595095D01*
X113377619Y-104642714D01*
X114282380Y-105071285D02*
X113282380Y-105071285D01*
X114282380Y-105642714D02*
X113710952Y-105214142D01*
X113282380Y-105642714D02*
X113853809Y-105071285D01*
X111809761Y-103025476D02*
X111857380Y-103168333D01*
X111857380Y-103406428D01*
X111809761Y-103501666D01*
X111762142Y-103549285D01*
X111666904Y-103596904D01*
X111571666Y-103596904D01*
X111476428Y-103549285D01*
X111428809Y-103501666D01*
X111381190Y-103406428D01*
X111333571Y-103215952D01*
X111285952Y-103120714D01*
X111238333Y-103073095D01*
X111143095Y-103025476D01*
X111047857Y-103025476D01*
X110952619Y-103073095D01*
X110905000Y-103120714D01*
X110857380Y-103215952D01*
X110857380Y-103454047D01*
X110905000Y-103596904D01*
X111857380Y-104025476D02*
X110857380Y-104025476D01*
X110857380Y-104263571D01*
X110905000Y-104406428D01*
X111000238Y-104501666D01*
X111095476Y-104549285D01*
X111285952Y-104596904D01*
X111428809Y-104596904D01*
X111619285Y-104549285D01*
X111714523Y-104501666D01*
X111809761Y-104406428D01*
X111857380Y-104263571D01*
X111857380Y-104025476D01*
X110857380Y-105215952D02*
X110857380Y-105406428D01*
X110905000Y-105501666D01*
X111000238Y-105596904D01*
X111190714Y-105644523D01*
X111524047Y-105644523D01*
X111714523Y-105596904D01*
X111809761Y-105501666D01*
X111857380Y-105406428D01*
X111857380Y-105215952D01*
X111809761Y-105120714D01*
X111714523Y-105025476D01*
X111524047Y-104977857D01*
X111190714Y-104977857D01*
X111000238Y-105025476D01*
X110905000Y-105120714D01*
X110857380Y-105215952D01*
X109154761Y-103211190D02*
X109202380Y-103354047D01*
X109202380Y-103592142D01*
X109154761Y-103687380D01*
X109107142Y-103735000D01*
X109011904Y-103782619D01*
X108916666Y-103782619D01*
X108821428Y-103735000D01*
X108773809Y-103687380D01*
X108726190Y-103592142D01*
X108678571Y-103401666D01*
X108630952Y-103306428D01*
X108583333Y-103258809D01*
X108488095Y-103211190D01*
X108392857Y-103211190D01*
X108297619Y-103258809D01*
X108250000Y-103306428D01*
X108202380Y-103401666D01*
X108202380Y-103639761D01*
X108250000Y-103782619D01*
X109202380Y-104211190D02*
X108202380Y-104211190D01*
X108202380Y-104449285D01*
X108250000Y-104592142D01*
X108345238Y-104687380D01*
X108440476Y-104735000D01*
X108630952Y-104782619D01*
X108773809Y-104782619D01*
X108964285Y-104735000D01*
X109059523Y-104687380D01*
X109154761Y-104592142D01*
X109202380Y-104449285D01*
X109202380Y-104211190D01*
X109202380Y-105211190D02*
X108202380Y-105211190D01*
X106306828Y-103118905D02*
X106306828Y-103880810D01*
X106687780Y-103499857D02*
X105925876Y-103499857D01*
X105687780Y-104261762D02*
X105687780Y-104880810D01*
X106068733Y-104547476D01*
X106068733Y-104690333D01*
X106116352Y-104785571D01*
X106163971Y-104833190D01*
X106259209Y-104880810D01*
X106497304Y-104880810D01*
X106592542Y-104833190D01*
X106640161Y-104785571D01*
X106687780Y-104690333D01*
X106687780Y-104404619D01*
X106640161Y-104309381D01*
X106592542Y-104261762D01*
X105687780Y-105166524D02*
X106687780Y-105499857D01*
X105687780Y-105833190D01*
X105687780Y-106071286D02*
X105687780Y-106690333D01*
X106068733Y-106357000D01*
X106068733Y-106499857D01*
X106116352Y-106595095D01*
X106163971Y-106642714D01*
X106259209Y-106690333D01*
X106497304Y-106690333D01*
X106592542Y-106642714D01*
X106640161Y-106595095D01*
X106687780Y-106499857D01*
X106687780Y-106214143D01*
X106640161Y-106118905D01*
X106592542Y-106071286D01*
X103170000Y-103642714D02*
X103122380Y-103547476D01*
X103122380Y-103404619D01*
X103170000Y-103261761D01*
X103265238Y-103166523D01*
X103360476Y-103118904D01*
X103550952Y-103071285D01*
X103693809Y-103071285D01*
X103884285Y-103118904D01*
X103979523Y-103166523D01*
X104074761Y-103261761D01*
X104122380Y-103404619D01*
X104122380Y-103499857D01*
X104074761Y-103642714D01*
X104027142Y-103690333D01*
X103693809Y-103690333D01*
X103693809Y-103499857D01*
X104122380Y-104118904D02*
X103122380Y-104118904D01*
X104122380Y-104690333D01*
X103122380Y-104690333D01*
X104122380Y-105166523D02*
X103122380Y-105166523D01*
X103122380Y-105404619D01*
X103170000Y-105547476D01*
X103265238Y-105642714D01*
X103360476Y-105690333D01*
X103550952Y-105737952D01*
X103693809Y-105737952D01*
X103884285Y-105690333D01*
X103979523Y-105642714D01*
X104074761Y-105547476D01*
X104122380Y-105404619D01*
X104122380Y-105166523D01*
X103170000Y-120266942D02*
X103122380Y-120171704D01*
X103122380Y-120028847D01*
X103170000Y-119885989D01*
X103265238Y-119790751D01*
X103360476Y-119743132D01*
X103550952Y-119695513D01*
X103693809Y-119695513D01*
X103884285Y-119743132D01*
X103979523Y-119790751D01*
X104074761Y-119885989D01*
X104122380Y-120028847D01*
X104122380Y-120124085D01*
X104074761Y-120266942D01*
X104027142Y-120314561D01*
X103693809Y-120314561D01*
X103693809Y-120124085D01*
X104122380Y-120743132D02*
X103122380Y-120743132D01*
X104122380Y-121314561D01*
X103122380Y-121314561D01*
X104122380Y-121790751D02*
X103122380Y-121790751D01*
X103122380Y-122028847D01*
X103170000Y-122171704D01*
X103265238Y-122266942D01*
X103360476Y-122314561D01*
X103550952Y-122362180D01*
X103693809Y-122362180D01*
X103884285Y-122314561D01*
X103979523Y-122266942D01*
X104074761Y-122171704D01*
X104122380Y-122028847D01*
X104122380Y-121790751D01*
X106281428Y-119743132D02*
X106281428Y-120505037D01*
X106662380Y-120124085D02*
X105900476Y-120124085D01*
X105662380Y-121457418D02*
X105662380Y-120981227D01*
X106138571Y-120933608D01*
X106090952Y-120981227D01*
X106043333Y-121076466D01*
X106043333Y-121314561D01*
X106090952Y-121409799D01*
X106138571Y-121457418D01*
X106233809Y-121505037D01*
X106471904Y-121505037D01*
X106567142Y-121457418D01*
X106614761Y-121409799D01*
X106662380Y-121314561D01*
X106662380Y-121076466D01*
X106614761Y-120981227D01*
X106567142Y-120933608D01*
X105662380Y-121790751D02*
X106662380Y-122124085D01*
X105662380Y-122457418D01*
X109154761Y-119933609D02*
X109202380Y-120076466D01*
X109202380Y-120314561D01*
X109154761Y-120409799D01*
X109107142Y-120457418D01*
X109011904Y-120505037D01*
X108916666Y-120505037D01*
X108821428Y-120457418D01*
X108773809Y-120409799D01*
X108726190Y-120314561D01*
X108678571Y-120124085D01*
X108630952Y-120028847D01*
X108583333Y-119981228D01*
X108488095Y-119933609D01*
X108392857Y-119933609D01*
X108297619Y-119981228D01*
X108250000Y-120028847D01*
X108202380Y-120124085D01*
X108202380Y-120362180D01*
X108250000Y-120505037D01*
X109202380Y-120933609D02*
X108202380Y-120933609D01*
X108202380Y-121171704D01*
X108250000Y-121314561D01*
X108345238Y-121409799D01*
X108440476Y-121457418D01*
X108630952Y-121505037D01*
X108773809Y-121505037D01*
X108964285Y-121457418D01*
X109059523Y-121409799D01*
X109154761Y-121314561D01*
X109202380Y-121171704D01*
X109202380Y-120933609D01*
X108916666Y-121885990D02*
X108916666Y-122362180D01*
X109202380Y-121790752D02*
X108202380Y-122124085D01*
X109202380Y-122457418D01*
X111694761Y-119981227D02*
X111742380Y-120124084D01*
X111742380Y-120362180D01*
X111694761Y-120457418D01*
X111647142Y-120505037D01*
X111551904Y-120552656D01*
X111456666Y-120552656D01*
X111361428Y-120505037D01*
X111313809Y-120457418D01*
X111266190Y-120362180D01*
X111218571Y-120171704D01*
X111170952Y-120076465D01*
X111123333Y-120028846D01*
X111028095Y-119981227D01*
X110932857Y-119981227D01*
X110837619Y-120028846D01*
X110790000Y-120076465D01*
X110742380Y-120171704D01*
X110742380Y-120409799D01*
X110790000Y-120552656D01*
X111647142Y-121552656D02*
X111694761Y-121505037D01*
X111742380Y-121362180D01*
X111742380Y-121266942D01*
X111694761Y-121124084D01*
X111599523Y-121028846D01*
X111504285Y-120981227D01*
X111313809Y-120933608D01*
X111170952Y-120933608D01*
X110980476Y-120981227D01*
X110885238Y-121028846D01*
X110790000Y-121124084D01*
X110742380Y-121266942D01*
X110742380Y-121362180D01*
X110790000Y-121505037D01*
X110837619Y-121552656D01*
X111742380Y-122457418D02*
X111742380Y-121981227D01*
X110742380Y-121981227D01*
X113282380Y-120933609D02*
X113282380Y-121505037D01*
X114282380Y-121219323D02*
X113282380Y-121219323D01*
X113282380Y-121743133D02*
X114282380Y-122409799D01*
X113282380Y-122409799D02*
X114282380Y-121743133D01*
X116822380Y-121409799D02*
X116346190Y-121076466D01*
X116822380Y-120838370D02*
X115822380Y-120838370D01*
X115822380Y-121219323D01*
X115870000Y-121314561D01*
X115917619Y-121362180D01*
X116012857Y-121409799D01*
X116155714Y-121409799D01*
X116250952Y-121362180D01*
X116298571Y-121314561D01*
X116346190Y-121219323D01*
X116346190Y-120838370D01*
X115822380Y-121743132D02*
X116822380Y-122409799D01*
X115822380Y-122409799D02*
X116822380Y-121743132D01*
X119362380Y-120505038D02*
X118362380Y-120505038D01*
X119362380Y-120981228D02*
X118362380Y-120981228D01*
X119362380Y-121552657D01*
X118362380Y-121552657D01*
X118362380Y-121885990D02*
X118362380Y-122457419D01*
X119362380Y-122171704D02*
X118362380Y-122171704D01*
X121775380Y-119505038D02*
X120775380Y-119505038D01*
X120775380Y-119885990D01*
X120823000Y-119981228D01*
X120870619Y-120028847D01*
X120965857Y-120076466D01*
X121108714Y-120076466D01*
X121203952Y-120028847D01*
X121251571Y-119981228D01*
X121299190Y-119885990D01*
X121299190Y-119505038D01*
X120775380Y-120409800D02*
X121775380Y-120647895D01*
X121061095Y-120838371D01*
X121775380Y-121028847D01*
X120775380Y-121266942D01*
X121775380Y-121647895D02*
X120775380Y-121647895D01*
X121489666Y-121981228D01*
X120775380Y-122314561D01*
X121775380Y-122314561D01*
D11*
X102635000Y-125415000D02*
X100045000Y-122875000D01*
X120415000Y-100015000D02*
X120415000Y-102555000D01*
X122955000Y-122875000D02*
X122955000Y-125415000D01*
X102635000Y-122875000D02*
X102635000Y-125415000D01*
X120415000Y-122875000D02*
X102635000Y-122875000D01*
X122955000Y-122875000D02*
X120415000Y-122875000D01*
X122955000Y-125415000D02*
X102635000Y-125415000D01*
X120415000Y-122875000D02*
X120415000Y-125415000D01*
X122955000Y-102555000D02*
X122955000Y-100015000D01*
X120415000Y-102555000D02*
X122955000Y-102555000D01*
X102635000Y-102555000D02*
X120415000Y-102555000D01*
X102635000Y-100015000D02*
X102635000Y-102555000D01*
X120415000Y-100015000D02*
X102635000Y-100015000D01*
X122955000Y-100015000D02*
X120415000Y-100015000D01*
%TD*%
M02*
