%TF.GenerationSoftware,KiCad,Pcbnew,(6.0.8)*%
%TF.CreationDate,2023-04-10T13:30:07+02:00*%
%TF.ProjectId,LR1120_Mikrobus,4c523131-3230-45f4-9d69-6b726f627573,rev?*%
%TF.SameCoordinates,Original*%
%TF.FileFunction,Paste,Top*%
%TF.FilePolarity,Positive*%
%FSLAX46Y46*%
G04 Gerber Fmt 4.6, Leading zero omitted, Abs format (unit mm)*
G04 Created by KiCad (PCBNEW (6.0.8)) date 2023-04-10 13:30:07*
%MOMM*%
%LPD*%
G01*
G04 APERTURE LIST*
G04 Aperture macros list*
%AMRoundRect*
0 Rectangle with rounded corners*
0 $1 Rounding radius*
0 $2 $3 $4 $5 $6 $7 $8 $9 X,Y pos of 4 corners*
0 Add a 4 corners polygon primitive as box body*
4,1,4,$2,$3,$4,$5,$6,$7,$8,$9,$2,$3,0*
0 Add four circle primitives for the rounded corners*
1,1,$1+$1,$2,$3*
1,1,$1+$1,$4,$5*
1,1,$1+$1,$6,$7*
1,1,$1+$1,$8,$9*
0 Add four rect primitives between the rounded corners*
20,1,$1+$1,$2,$3,$4,$5,0*
20,1,$1+$1,$4,$5,$6,$7,0*
20,1,$1+$1,$6,$7,$8,$9,0*
20,1,$1+$1,$8,$9,$2,$3,0*%
%AMFreePoly0*
4,1,48,0.269963,0.340733,0.273618,0.341377,0.276832,0.339521,0.287682,0.337608,0.304305,0.323660,0.323103,0.312807,0.325681,0.305724,0.331455,0.300879,0.335224,0.279505,0.342646,0.259112,0.342646,-0.259112,0.340733,-0.269963,0.341377,-0.273618,0.339521,-0.276832,0.337608,-0.287682,0.323660,-0.304305,0.312807,-0.323103,0.305724,-0.325681,0.300879,-0.331455,0.279505,-0.335224,
0.259112,-0.342646,-0.259112,-0.342646,-0.269963,-0.340733,-0.273618,-0.341377,-0.276832,-0.339521,-0.287682,-0.337608,-0.304305,-0.323660,-0.323103,-0.312807,-0.325681,-0.305724,-0.331455,-0.300879,-0.335224,-0.279505,-0.342646,-0.259112,-0.342646,0.189911,-0.341746,0.195015,-0.342329,0.197191,-0.340774,0.200525,-0.337608,0.218481,-0.325886,0.232451,-0.318179,0.248978,-0.248978,0.318179,
-0.244733,0.321152,-0.243606,0.323103,-0.240149,0.324361,-0.225214,0.334819,-0.207049,0.336409,-0.189911,0.342646,0.259112,0.342646,0.269963,0.340733,0.269963,0.340733,$1*%
%AMFreePoly1*
4,1,15,0.260501,0.381657,0.321190,0.320968,0.342646,0.269165,0.342647,-0.269167,0.321188,-0.320969,0.260501,-0.381657,0.208698,-0.403113,-0.269389,-0.403113,-0.321190,-0.381657,-0.342646,-0.329856,-0.342646,0.329856,-0.321190,0.381657,-0.269389,0.403113,0.208700,0.403114,0.260501,0.381657,0.260501,0.381657,$1*%
%AMFreePoly2*
4,1,15,0.320968,0.321190,0.381657,0.260501,0.403113,0.208698,0.403113,-0.269389,0.381657,-0.321190,0.329856,-0.342646,-0.329856,-0.342646,-0.381657,-0.321190,-0.403113,-0.269389,-0.403114,0.208700,-0.381657,0.260501,-0.320968,0.321190,-0.269165,0.342646,0.269167,0.342647,0.320968,0.321190,0.320968,0.321190,$1*%
%AMFreePoly3*
4,1,48,0.269963,0.340733,0.273618,0.341377,0.276832,0.339521,0.287682,0.337608,0.304305,0.323660,0.323103,0.312807,0.325681,0.305724,0.331455,0.300879,0.335224,0.279505,0.342646,0.259112,0.342646,-0.259112,0.340733,-0.269963,0.341377,-0.273618,0.339521,-0.276832,0.337608,-0.287682,0.323660,-0.304305,0.312807,-0.323103,0.305724,-0.325681,0.300879,-0.331455,0.279505,-0.335224,
0.259112,-0.342646,-0.189911,-0.342646,-0.195015,-0.341746,-0.197191,-0.342329,-0.200525,-0.340774,-0.218481,-0.337608,-0.232451,-0.325886,-0.248978,-0.318179,-0.318179,-0.248978,-0.321152,-0.244733,-0.323103,-0.243606,-0.324361,-0.240149,-0.334819,-0.225214,-0.336409,-0.207049,-0.342646,-0.189911,-0.342646,0.259112,-0.340733,0.269963,-0.341377,0.273618,-0.339521,0.276832,-0.337608,0.287682,
-0.323660,0.304305,-0.312807,0.323103,-0.305724,0.325681,-0.300879,0.331455,-0.279505,0.335224,-0.259112,0.342646,0.259112,0.342646,0.269963,0.340733,0.269963,0.340733,$1*%
%AMFreePoly4*
4,1,15,0.381657,0.321190,0.403113,0.269389,0.403114,-0.208700,0.381655,-0.260502,0.320968,-0.321190,0.269165,-0.342646,-0.269167,-0.342647,-0.320969,-0.321188,-0.381657,-0.260501,-0.403113,-0.208698,-0.403113,0.269389,-0.381657,0.321190,-0.329856,0.342646,0.329856,0.342646,0.381657,0.321190,0.381657,0.321190,$1*%
%AMFreePoly5*
4,1,16,-0.208698,0.403113,0.269389,0.403113,0.321190,0.381657,0.342646,0.329856,0.342646,-0.329856,0.321190,-0.381657,0.269389,-0.403113,-0.208700,-0.403114,-0.260502,-0.381655,-0.321190,-0.320968,-0.342646,-0.269165,-0.342647,0.269167,-0.321190,0.320968,-0.260501,0.381657,-0.208700,0.403114,-0.208698,0.403113,-0.208698,0.403113,$1*%
%AMFreePoly6*
4,1,48,0.195015,0.341746,0.197191,0.342329,0.200525,0.340774,0.218481,0.337608,0.232451,0.325886,0.248978,0.318179,0.318179,0.248978,0.321152,0.244733,0.323103,0.243606,0.324361,0.240149,0.334819,0.225214,0.336409,0.207049,0.342646,0.189911,0.342646,-0.259112,0.340733,-0.269963,0.341377,-0.273618,0.339521,-0.276832,0.337608,-0.287682,0.323660,-0.304305,0.312807,-0.323103,
0.305724,-0.325681,0.300879,-0.331455,0.279505,-0.335224,0.259112,-0.342646,-0.259112,-0.342646,-0.269963,-0.340733,-0.273618,-0.341377,-0.276832,-0.339521,-0.287682,-0.337608,-0.304305,-0.323660,-0.323103,-0.312807,-0.325681,-0.305724,-0.331455,-0.300879,-0.335224,-0.279505,-0.342646,-0.259112,-0.342646,0.259112,-0.340733,0.269963,-0.341377,0.273618,-0.339521,0.276832,-0.337608,0.287682,
-0.323660,0.304305,-0.312807,0.323103,-0.305724,0.325681,-0.300879,0.331455,-0.279505,0.335224,-0.259112,0.342646,0.189911,0.342646,0.195015,0.341746,0.195015,0.341746,$1*%
%AMFreePoly7*
4,1,48,0.269963,0.340733,0.273618,0.341377,0.276832,0.339521,0.287682,0.337608,0.304305,0.323660,0.323103,0.312807,0.325681,0.305724,0.331455,0.300879,0.335224,0.279505,0.342646,0.259112,0.342646,-0.189911,0.341746,-0.195015,0.342329,-0.197191,0.340774,-0.200525,0.337608,-0.218481,0.325886,-0.232451,0.318179,-0.248978,0.248978,-0.318179,0.244733,-0.321152,0.243606,-0.323103,
0.240149,-0.324361,0.225214,-0.334819,0.207049,-0.336409,0.189911,-0.342646,-0.259112,-0.342646,-0.269963,-0.340733,-0.273618,-0.341377,-0.276832,-0.339521,-0.287682,-0.337608,-0.304305,-0.323660,-0.323103,-0.312807,-0.325681,-0.305724,-0.331455,-0.300879,-0.335224,-0.279505,-0.342646,-0.259112,-0.342646,0.259112,-0.340733,0.269963,-0.341377,0.273618,-0.339521,0.276832,-0.337608,0.287682,
-0.323660,0.304305,-0.312807,0.323103,-0.305724,0.325681,-0.300879,0.331455,-0.279505,0.335224,-0.259112,0.342646,0.259112,0.342646,0.269963,0.340733,0.269963,0.340733,$1*%
G04 Aperture macros list end*
%ADD10RoundRect,0.079500X-0.100500X0.079500X-0.100500X-0.079500X0.100500X-0.079500X0.100500X0.079500X0*%
%ADD11R,0.375000X0.350000*%
%ADD12R,0.350000X0.375000*%
%ADD13RoundRect,0.200000X0.275000X-0.200000X0.275000X0.200000X-0.275000X0.200000X-0.275000X-0.200000X0*%
%ADD14RoundRect,0.079500X0.100500X-0.079500X0.100500X0.079500X-0.100500X0.079500X-0.100500X-0.079500X0*%
%ADD15RoundRect,0.079500X-0.079500X-0.100500X0.079500X-0.100500X0.079500X0.100500X-0.079500X0.100500X0*%
%ADD16RoundRect,0.147500X0.147500X0.172500X-0.147500X0.172500X-0.147500X-0.172500X0.147500X-0.172500X0*%
%ADD17RoundRect,0.140000X-0.140000X-0.170000X0.140000X-0.170000X0.140000X0.170000X-0.140000X0.170000X0*%
%ADD18R,0.750000X0.250000*%
%ADD19R,0.250000X0.750000*%
%ADD20R,0.860000X0.860000*%
%ADD21RoundRect,0.140000X0.170000X-0.140000X0.170000X0.140000X-0.170000X0.140000X-0.170000X-0.140000X0*%
%ADD22R,0.850000X0.750000*%
%ADD23RoundRect,0.147500X0.172500X-0.147500X0.172500X0.147500X-0.172500X0.147500X-0.172500X-0.147500X0*%
%ADD24R,1.050000X1.000000*%
%ADD25R,2.200000X1.050000*%
%ADD26RoundRect,0.140000X-0.170000X0.140000X-0.170000X-0.140000X0.170000X-0.140000X0.170000X0.140000X0*%
%ADD27RoundRect,0.079500X0.079500X0.100500X-0.079500X0.100500X-0.079500X-0.100500X0.079500X-0.100500X0*%
%ADD28RoundRect,0.140000X-0.021213X0.219203X-0.219203X0.021213X0.021213X-0.219203X0.219203X-0.021213X0*%
%ADD29RoundRect,0.147500X-0.172500X0.147500X-0.172500X-0.147500X0.172500X-0.147500X0.172500X0.147500X0*%
%ADD30RoundRect,0.250000X-0.650000X0.250000X-0.650000X-0.250000X0.650000X-0.250000X0.650000X0.250000X0*%
%ADD31RoundRect,0.135000X0.185000X-0.135000X0.185000X0.135000X-0.185000X0.135000X-0.185000X-0.135000X0*%
%ADD32RoundRect,0.201557X-0.201556X0.201556X-0.201556X-0.201556X0.201556X-0.201556X0.201556X0.201556X0*%
%ADD33FreePoly0,270.000000*%
%ADD34FreePoly1,270.000000*%
%ADD35FreePoly2,270.000000*%
%ADD36FreePoly3,270.000000*%
%ADD37FreePoly4,270.000000*%
%ADD38FreePoly5,270.000000*%
%ADD39FreePoly6,270.000000*%
%ADD40FreePoly7,270.000000*%
%ADD41RoundRect,0.062500X-0.062500X0.337500X-0.062500X-0.337500X0.062500X-0.337500X0.062500X0.337500X0*%
%ADD42RoundRect,0.062500X-0.337500X0.062500X-0.337500X-0.062500X0.337500X-0.062500X0.337500X0.062500X0*%
%ADD43R,0.600000X0.200000*%
%ADD44R,1.600000X0.200000*%
%ADD45RoundRect,0.140000X0.140000X0.170000X-0.140000X0.170000X-0.140000X-0.170000X0.140000X-0.170000X0*%
%ADD46RoundRect,0.225000X0.250000X-0.225000X0.250000X0.225000X-0.250000X0.225000X-0.250000X-0.225000X0*%
%ADD47RoundRect,0.147500X0.226274X0.017678X0.017678X0.226274X-0.226274X-0.017678X-0.017678X-0.226274X0*%
%ADD48R,0.250000X0.250000*%
%ADD49RoundRect,0.218750X0.256250X-0.218750X0.256250X0.218750X-0.256250X0.218750X-0.256250X-0.218750X0*%
%ADD50RoundRect,0.150000X-0.150000X-0.250000X0.150000X-0.250000X0.150000X0.250000X-0.150000X0.250000X0*%
G04 APERTURE END LIST*
D10*
%TO.C,C4*%
X128300000Y-115700000D03*
X128300000Y-116390000D03*
%TD*%
D11*
%TO.C,U5*%
X102737500Y-116250000D03*
X102737500Y-116750000D03*
X102737500Y-117250000D03*
X102737500Y-117750000D03*
D12*
X103250000Y-117762500D03*
X103750000Y-117762500D03*
D11*
X104262500Y-117750000D03*
X104262500Y-117250000D03*
X104262500Y-116750000D03*
X104262500Y-116250000D03*
D12*
X103750000Y-116237500D03*
X103250000Y-116237500D03*
%TD*%
D13*
%TO.C,R1*%
X121900000Y-111025000D03*
X121900000Y-109375000D03*
%TD*%
D14*
%TO.C,R3*%
X132600000Y-104645000D03*
X132600000Y-103955000D03*
%TD*%
%TO.C,C2*%
X133800000Y-109445000D03*
X133800000Y-108755000D03*
%TD*%
D15*
%TO.C,C56*%
X125655000Y-108100000D03*
X126345000Y-108100000D03*
%TD*%
D16*
%TO.C,L6*%
X142100000Y-106200000D03*
X141130000Y-106200000D03*
%TD*%
D17*
%TO.C,C37*%
X104600000Y-122100000D03*
X105560000Y-122100000D03*
%TD*%
D18*
%TO.C,U2*%
X147500000Y-106600000D03*
X147500000Y-107100000D03*
X147500000Y-107600000D03*
D19*
X148000000Y-108100000D03*
X148500000Y-108100000D03*
X149000000Y-108100000D03*
D18*
X149500000Y-107600000D03*
X149500000Y-107100000D03*
X149500000Y-106600000D03*
D19*
X149000000Y-106100000D03*
X148500000Y-106100000D03*
X148000000Y-106100000D03*
D20*
X148500000Y-107100000D03*
%TD*%
D21*
%TO.C,C11*%
X143000000Y-106200000D03*
X143000000Y-105240000D03*
%TD*%
D17*
%TO.C,C23*%
X137640000Y-113300000D03*
X138600000Y-113300000D03*
%TD*%
D16*
%TO.C,L7*%
X139100000Y-109000000D03*
X138130000Y-109000000D03*
%TD*%
D22*
%TO.C,Q1*%
X131250000Y-106600000D03*
X132600000Y-106600000D03*
X132600000Y-105550000D03*
X131250000Y-105550000D03*
%TD*%
D14*
%TO.C,R6*%
X101800000Y-118025000D03*
X101800000Y-117335000D03*
%TD*%
D23*
%TO.C,L3*%
X137200000Y-106200000D03*
X137200000Y-105230000D03*
%TD*%
D21*
%TO.C,C26*%
X144200000Y-114260000D03*
X144200000Y-113300000D03*
%TD*%
D10*
%TO.C,C49*%
X127400000Y-104290000D03*
X127400000Y-103600000D03*
%TD*%
%TO.C,C58*%
X147100000Y-112055000D03*
X147100000Y-112745000D03*
%TD*%
D21*
%TO.C,C9*%
X140200000Y-106160000D03*
X140200000Y-105200000D03*
%TD*%
D24*
%TO.C,ANT_LR112x1*%
X153850000Y-102600000D03*
D25*
X155375000Y-104075000D03*
X155375000Y-101125000D03*
%TD*%
D10*
%TO.C,R15*%
X125300000Y-118955000D03*
X125300000Y-119645000D03*
%TD*%
D26*
%TO.C,C16*%
X142950000Y-108000000D03*
X142950000Y-108960000D03*
%TD*%
D27*
%TO.C,C54*%
X151125000Y-113200000D03*
X150435000Y-113200000D03*
%TD*%
%TO.C,R9*%
X145890000Y-111800000D03*
X145200000Y-111800000D03*
%TD*%
D15*
%TO.C,C6*%
X137925000Y-104300000D03*
X137235000Y-104300000D03*
%TD*%
D10*
%TO.C,R5*%
X101800000Y-116625000D03*
X101800000Y-115935000D03*
%TD*%
D17*
%TO.C,C10*%
X143940000Y-106200000D03*
X144900000Y-106200000D03*
%TD*%
D28*
%TO.C,C27*%
X136700000Y-116300000D03*
X136021178Y-116978822D03*
%TD*%
D14*
%TO.C,R17*%
X129800000Y-119055000D03*
X129800000Y-119745000D03*
%TD*%
D29*
%TO.C,L9*%
X137100000Y-111330000D03*
X137100000Y-112300000D03*
%TD*%
D17*
%TO.C,C21*%
X139000000Y-110000000D03*
X139960000Y-110000000D03*
%TD*%
D30*
%TO.C,Q3*%
X127800000Y-108100000D03*
X127800000Y-110600000D03*
%TD*%
D17*
%TO.C,C35*%
X105640000Y-109500000D03*
X106600000Y-109500000D03*
%TD*%
D14*
%TO.C,C1*%
X134500000Y-109445000D03*
X134500000Y-108755000D03*
%TD*%
D15*
%TO.C,L14*%
X148955000Y-113200000D03*
X149645000Y-113200000D03*
%TD*%
D29*
%TO.C,RX1*%
X125300000Y-120700000D03*
X125300000Y-121670000D03*
%TD*%
D17*
%TO.C,C19*%
X137090000Y-109950000D03*
X138050000Y-109950000D03*
%TD*%
D10*
%TO.C,C39*%
X150500000Y-108245000D03*
X150500000Y-107555000D03*
%TD*%
D17*
%TO.C,C29*%
X142940000Y-118000000D03*
X143900000Y-118000000D03*
%TD*%
D14*
%TO.C,D2*%
X151900000Y-113890000D03*
X151900000Y-113200000D03*
%TD*%
D21*
%TO.C,C24*%
X139500000Y-114260000D03*
X139500000Y-113300000D03*
%TD*%
D16*
%TO.C,L10*%
X139000000Y-110900000D03*
X138030000Y-110900000D03*
%TD*%
D14*
%TO.C,C47*%
X105100000Y-116700000D03*
X105100000Y-117390000D03*
%TD*%
D17*
%TO.C,C25*%
X140400000Y-113300000D03*
X141360000Y-113300000D03*
%TD*%
%TO.C,C8*%
X138240000Y-105200000D03*
X139200000Y-105200000D03*
%TD*%
D26*
%TO.C,C30*%
X142000000Y-118000000D03*
X142000000Y-118960000D03*
%TD*%
D13*
%TO.C,R2*%
X112400000Y-110975000D03*
X112400000Y-109325000D03*
%TD*%
D14*
%TO.C,C3*%
X129100000Y-112945000D03*
X129100000Y-112255000D03*
%TD*%
%TO.C,C33*%
X115300000Y-109455000D03*
X115300000Y-110145000D03*
%TD*%
D16*
%TO.C,L20*%
X141000000Y-118000000D03*
X140030000Y-118000000D03*
%TD*%
D15*
%TO.C,C55*%
X126400000Y-104400000D03*
X125710000Y-104400000D03*
%TD*%
D31*
%TO.C,LR112x_1*%
X132100000Y-121820000D03*
X132100000Y-120800000D03*
%TD*%
D29*
%TO.C,L4*%
X137150000Y-108030000D03*
X137150000Y-109000000D03*
%TD*%
D13*
%TO.C,R10*%
X106600000Y-113100000D03*
X106600000Y-111450000D03*
%TD*%
D27*
%TO.C,R30*%
X141815000Y-103300000D03*
X142505000Y-103300000D03*
%TD*%
D32*
%TO.C,U1*%
X132400000Y-113700000D03*
D33*
X131475000Y-114625000D03*
D34*
X132400000Y-111775000D03*
D35*
X131475000Y-113700000D03*
D34*
X133400000Y-111775000D03*
D36*
X134325000Y-114625000D03*
D37*
X134325000Y-112700000D03*
D32*
X133400000Y-113700000D03*
X132400000Y-112700000D03*
D38*
X132400000Y-114625000D03*
D37*
X134325000Y-113700000D03*
D39*
X131475000Y-111775000D03*
D38*
X133400000Y-114625000D03*
D40*
X134325000Y-111775000D03*
D35*
X131475000Y-112700000D03*
D32*
X133400000Y-112700000D03*
D41*
X134650000Y-110750000D03*
X134150000Y-110750000D03*
X133650000Y-110750000D03*
X133150000Y-110750000D03*
X132650000Y-110750000D03*
X132150000Y-110750000D03*
X131650000Y-110750000D03*
X131150000Y-110750000D03*
D42*
X130450000Y-111450000D03*
X130450000Y-111950000D03*
X130450000Y-112450000D03*
X130450000Y-112950000D03*
X130450000Y-113450000D03*
X130450000Y-113950000D03*
X130450000Y-114450000D03*
X130450000Y-114950000D03*
D41*
X131150000Y-115650000D03*
X131650000Y-115650000D03*
X132150000Y-115650000D03*
X132650000Y-115650000D03*
X133150000Y-115650000D03*
X133650000Y-115650000D03*
X134150000Y-115650000D03*
X134650000Y-115650000D03*
D42*
X135350000Y-114950000D03*
X135350000Y-114450000D03*
X135350000Y-113950000D03*
X135350000Y-113450000D03*
X135350000Y-112950000D03*
X135350000Y-112450000D03*
X135350000Y-111950000D03*
X135350000Y-111450000D03*
%TD*%
D43*
%TO.C,U7*%
X109700000Y-119500000D03*
D44*
X110200000Y-119900000D03*
D43*
X109700000Y-120300000D03*
X110700000Y-120300000D03*
X110700000Y-119500000D03*
%TD*%
D14*
%TO.C,C5*%
X135200000Y-108755000D03*
X135200000Y-109445000D03*
%TD*%
D10*
%TO.C,C45*%
X143800000Y-112490000D03*
X143800000Y-111800000D03*
%TD*%
D16*
%TO.C,L8*%
X142000000Y-108000000D03*
X141030000Y-108000000D03*
%TD*%
D14*
%TO.C,D3*%
X152400000Y-123565000D03*
X152400000Y-122875000D03*
%TD*%
D26*
%TO.C,C17*%
X145750000Y-108000000D03*
X145750000Y-108960000D03*
%TD*%
D10*
%TO.C,R18*%
X130500000Y-119745000D03*
X130500000Y-119055000D03*
%TD*%
D29*
%TO.C,L11*%
X136700000Y-113300000D03*
X136700000Y-114270000D03*
%TD*%
D16*
%TO.C,L17*%
X150600000Y-102745000D03*
X149630000Y-102745000D03*
%TD*%
D26*
%TO.C,C34*%
X123200000Y-109800000D03*
X123200000Y-110760000D03*
%TD*%
D15*
%TO.C,FB1*%
X125735000Y-103600000D03*
X126425000Y-103600000D03*
%TD*%
D17*
%TO.C,C13*%
X138140000Y-108000000D03*
X139100000Y-108000000D03*
%TD*%
D21*
%TO.C,C48*%
X106000000Y-117680000D03*
X106000000Y-116720000D03*
%TD*%
D31*
%TO.C,LR112x_2*%
X133400000Y-121900000D03*
X133400000Y-120880000D03*
%TD*%
D15*
%TO.C,C7*%
X137850000Y-107050000D03*
X137160000Y-107050000D03*
%TD*%
D45*
%TO.C,C31*%
X148500000Y-105000000D03*
X147540000Y-105000000D03*
%TD*%
D16*
%TO.C,L5*%
X139170000Y-106200000D03*
X138200000Y-106200000D03*
%TD*%
D10*
%TO.C,C52*%
X108000000Y-119890000D03*
X108000000Y-119200000D03*
%TD*%
D14*
%TO.C,R33*%
X136400000Y-106300000D03*
X136400000Y-105610000D03*
%TD*%
%TO.C,D1*%
X152400000Y-102600000D03*
X152400000Y-103290000D03*
%TD*%
D26*
%TO.C,C32*%
X151500000Y-102665000D03*
X151500000Y-103625000D03*
%TD*%
D45*
%TO.C,C18*%
X138960000Y-112000000D03*
X138000000Y-112000000D03*
%TD*%
%TO.C,C22*%
X138600000Y-115200000D03*
X137640000Y-115200000D03*
%TD*%
D46*
%TO.C,C38*%
X114000000Y-110850000D03*
X114000000Y-109300000D03*
%TD*%
D24*
%TO.C,ANT_GNSS1*%
X153650000Y-113200000D03*
D25*
X155175000Y-111725000D03*
X155175000Y-114675000D03*
%TD*%
D29*
%TO.C,TX1*%
X127900000Y-120700000D03*
X127900000Y-121670000D03*
%TD*%
D27*
%TO.C,R32*%
X125110000Y-111800000D03*
X125800000Y-111800000D03*
%TD*%
D47*
%TO.C,L15*%
X138000000Y-117642947D03*
X137314106Y-116957053D03*
%TD*%
D16*
%TO.C,L13*%
X143270000Y-113300000D03*
X142300000Y-113300000D03*
%TD*%
%TO.C,Scanning1*%
X140600000Y-103300000D03*
X139630000Y-103300000D03*
%TD*%
D17*
%TO.C,C53*%
X140040000Y-117000000D03*
X141000000Y-117000000D03*
%TD*%
D27*
%TO.C,C50*%
X131110000Y-103900000D03*
X131800000Y-103900000D03*
%TD*%
D15*
%TO.C,C57*%
X125655000Y-110600000D03*
X126345000Y-110600000D03*
%TD*%
D48*
%TO.C,U8*%
X147875000Y-112500000D03*
X147875000Y-112900000D03*
X147875000Y-113300000D03*
X148275000Y-113300000D03*
X148275000Y-112900000D03*
X148275000Y-112500000D03*
%TD*%
D26*
%TO.C,C28*%
X139100000Y-118000000D03*
X139100000Y-118960000D03*
%TD*%
D10*
%TO.C,R14*%
X127900000Y-118975000D03*
X127900000Y-119665000D03*
%TD*%
D14*
%TO.C,R31*%
X111900000Y-119965000D03*
X111900000Y-119275000D03*
%TD*%
D15*
%TO.C,R8*%
X143000000Y-111800000D03*
X142310000Y-111800000D03*
%TD*%
D26*
%TO.C,C14*%
X140100000Y-108000000D03*
X140100000Y-108960000D03*
%TD*%
D10*
%TO.C,C43*%
X131200000Y-119745000D03*
X131200000Y-119055000D03*
%TD*%
D17*
%TO.C,C15*%
X143840000Y-108000000D03*
X144800000Y-108000000D03*
%TD*%
D45*
%TO.C,C20*%
X140960000Y-110900000D03*
X140000000Y-110900000D03*
%TD*%
D16*
%TO.C,L12*%
X138600000Y-114300000D03*
X137630000Y-114300000D03*
%TD*%
D10*
%TO.C,C46*%
X144500000Y-111800000D03*
X144500000Y-112490000D03*
%TD*%
D49*
%TO.C,L1*%
X128000000Y-114475000D03*
X128000000Y-112900000D03*
%TD*%
D21*
%TO.C,C12*%
X145800000Y-106200000D03*
X145800000Y-105240000D03*
%TD*%
D50*
%TO.C,Q2*%
X128500000Y-103600000D03*
X130300000Y-103600000D03*
X130300000Y-104800000D03*
X128500000Y-104800000D03*
%TD*%
D24*
%TO.C,ANT_WIFI1*%
X153850000Y-122900000D03*
D25*
X155375000Y-124375000D03*
X155375000Y-121425000D03*
%TD*%
M02*
